<svg width="91" height="25" viewBox="0 0 91 25" fill="none" xmlns="http://www.w3.org/2000/svg"><path d="M14.017 12.241a4.63 4.63 0 012.232-3.893 4.812 4.812 0 00-3.78-2.023c-1.591-.165-3.134.942-3.944.942-.826 0-2.074-.925-3.418-.898A5.042 5.042 0 00.87 8.927c-1.832 3.139-.466 7.753 1.29 10.29.877 1.243 1.903 2.631 3.246 2.582 1.314-.054 1.805-.83 3.39-.83 1.572 0 2.032.83 3.402.799 1.41-.023 2.298-1.248 3.145-2.503a10.235 10.235 0 001.439-2.9 4.483 4.483 0 01-2.765-4.124zm-2.742-8.07A4.538 4.538 0 0012.331.898a4.712 4.712 0 00-3.038 1.556c-.77.867-1.16 2-1.084 3.152a3.898 3.898 0 003.066-1.435zm17.762 13.914h-4.312l-1.036 3.026h-1.826l4.084-11.196h1.898l4.084 11.196H30.07l-1.034-3.026zm-3.865-1.397h3.417l-1.685-4.911h-.047l-1.685 4.911zm16.299 1.002c0 2.537-1.371 4.166-3.441 4.166a2.802 2.802 0 01-2.595-1.428h-.04v4.043h-1.692V13.608h1.639v1.358h.03A2.932 2.932 0 0138 13.523c2.093 0 3.472 1.637 3.472 4.167zm-1.74 0c0-1.653-.862-2.74-2.179-2.74-1.293 0-2.163 1.11-2.163 2.74 0 1.645.87 2.746 2.163 2.746 1.317 0 2.18-1.078 2.18-2.746zm10.847 0c0 2.537-1.372 4.166-3.442 4.166a2.802 2.802 0 01-2.595-1.428h-.039v4.043H42.81V13.608h1.639v1.358h.031a2.932 2.932 0 012.626-1.443c2.093 0 3.473 1.637 3.473 4.167zm-1.74 0c0-1.653-.863-2.74-2.18-2.74-1.293 0-2.163 1.11-2.163 2.74 0 1.645.87 2.746 2.163 2.746 1.317 0 2.18-1.078 2.18-2.746zm7.547.488c.125 1.11 1.215 1.84 2.704 1.84 1.427 0 2.453-.73 2.453-1.73 0-.87-.619-1.39-2.085-1.747l-1.466-.35c-2.077-.496-3.041-1.458-3.041-3.018 0-1.932 1.7-3.258 4.115-3.258 2.391 0 4.03 1.326 4.085 3.258h-1.71c-.101-1.117-1.035-1.792-2.398-1.792-1.364 0-2.297.683-2.297 1.676 0 .792.596 1.257 2.054 1.614l1.246.303c2.321.543 3.284 1.466 3.284 3.104 0 2.094-1.684 3.406-4.365 3.406-2.509 0-4.203-1.281-4.312-3.306h1.733zm10.277-6.46v1.932h1.568v1.326h-1.568v4.5c0 .7.314 1.026 1.003 1.026.186-.004.372-.017.557-.04v1.32c-.31.057-.625.083-.94.077-1.67 0-2.321-.62-2.321-2.204v-4.679h-1.2V13.65h1.2v-1.932h1.7zm2.568 5.985c0-2.568 1.529-4.182 3.912-4.182 2.39 0 3.912 1.614 3.912 4.182 0 2.576-1.513 4.183-3.912 4.183-2.398 0-3.911-1.607-3.911-4.183zm6.1 0c0-1.762-.817-2.801-2.188-2.801-1.372 0-2.188 1.047-2.188 2.801 0 1.77.816 2.801 2.188 2.801 1.371 0 2.187-1.032 2.187-2.8zm3.007-4.095h1.614v1.39h.04a1.964 1.964 0 011.983-1.476c.195 0 .39.02.58.063v1.567a2.387 2.387 0 00-.76-.101c-.498-.02-.98.176-1.319.537-.34.361-.502.851-.445 1.341v4.842h-1.693v-8.163zm11.993 5.779c-.228 1.482-1.686 2.499-3.55 2.499-2.4 0-3.89-1.591-3.89-4.144 0-2.56 1.498-4.221 3.818-4.221 2.282 0 3.716 1.551 3.716 4.026v.575H84.6v.1c-.055.608.157 1.21.582 1.652.424.443 1.02.683 1.636.66a1.868 1.868 0 001.905-1.147h1.607zm-5.722-2.436h4.123c.03-.547-.17-1.08-.554-1.474a1.994 1.994 0 00-1.47-.598 2.099 2.099 0 00-1.485.603 2.055 2.055 0 00-.614 1.469zM24.04 4.218h.726a.92.92 0 00.702-.206.9.9 0 00.323-.651c0-.496-.377-.817-1.017-.817a.976.976 0 00-.728.192.957.957 0 00-.369.65h-.798a1.68 1.68 0 01.615-1.2 1.716 1.716 0 011.306-.373c1.07 0 1.823.593 1.823 1.447a1.252 1.252 0 01-.987 1.23v.064c.696.03 1.236.612 1.209 1.3-.05.481-.293.922-.675 1.223-.382.3-.87.437-1.355.377a1.82 1.82 0 01-1.362-.367c-.385-.3-.63-.742-.68-1.225h.81c.05.515.527.847 1.232.847.704 0 1.164-.373 1.164-.899 0-.533-.433-.861-1.19-.861h-.75v-.73zm4.199 1.474c0-.731.55-1.152 1.526-1.212l1.11-.064v-.35c0-.429-.285-.671-.84-.671-.451 0-.763.164-.854.451h-.784c.083-.697.747-1.144 1.677-1.144 1.028 0 1.608.506 1.608 1.364V6.84h-.78v-.57h-.064c-.264.416-.735.66-1.232.637a1.247 1.247 0 01-.956-.307 1.221 1.221 0 01-.411-.908zm2.637-.347v-.34l-1.002.064c-.565.037-.821.227-.821.585 0 .366.32.578.76.578a.973.973 0 00.722-.22.954.954 0 00.34-.667zM33.6 3.376v3.386h-.81v-4.06h2.7v.674H33.6zm6.668 1.422c0 1.29-.66 2.098-1.695 2.098a1.34 1.34 0 01-1.262-.682h-.064V8.18h-.81V2.77h.78v.671h.06a1.428 1.428 0 011.288-.738c1.044 0 1.703.805 1.703 2.096zm-.833 0c0-.858-.41-1.376-1.096-1.376-.681 0-1.107.529-1.107 1.38 0 .845.426 1.375 1.104 1.375.69 0 1.1-.518 1.1-1.38zm1.971 3.418v-.69c.088.01.176.016.265.015a.7.7 0 00.741-.567l.06-.197-1.484-4.075h.882l1.028 3.224h.064l1.025-3.224h.858l-1.529 4.227c-.35.988-.738 1.305-1.574 1.305-.068 0-.26-.007-.336-.018zm4.138-2.515h.806c.079.358.418.545.892.545.539 0 .87-.235.87-.6 0-.392-.297-.579-.87-.579h-.614v-.622h.603c.49 0 .738-.186.738-.526 0-.298-.24-.525-.738-.525-.453 0-.784.19-.836.51h-.78a1.435 1.435 0 011.616-1.189c.975 0 1.533.436 1.533 1.122.01.394-.26.74-.648.831v.064a.914.914 0 01.803.913c0 .772-.664 1.283-1.677 1.283-.896 0-1.624-.407-1.698-1.227zm4.554 1.061v-4.06h.802v2.792h.064l1.89-2.792h.803v4.06h-.803V3.954h-.06L50.9 6.762h-.802zm7.947-3.386h-1.291v3.386h-.81V3.376h-1.292v-.674h3.393v.674zm4.856 2.368a1.667 1.667 0 01-1.778 1.174 1.872 1.872 0 01-1.437-.613 1.832 1.832 0 01-.458-1.482 1.86 1.86 0 01.457-1.488 1.9 1.9 0 011.435-.633c1.14 0 1.83.772 1.83 2.046v.28h-2.896v.045c-.026.301.078.6.286.82.208.222.5.347.806.343a.985.985 0 00.975-.492h.78zm-2.847-1.309h2.07a.973.973 0 00-.268-.746.994.994 0 00-.74-.305 1.054 1.054 0 00-.755.304 1.03 1.03 0 00-.307.747zm5.529-1.733h1.85c.801 0 1.272.402 1.272 1.032a.874.874 0 01-.693.858v.063a.93.93 0 01.877.936c0 .708-.538 1.17-1.438 1.17h-1.868v-4.06zm.802.615v1.051h.802c.49 0 .724-.186.724-.53 0-.316-.204-.521-.634-.521h-.892zm0 1.64v1.19h.96c.479 0 .735-.21.735-.593 0-.407-.29-.597-.837-.597h-.858z" fill="#FFFF01"/></svg>