<svg width="106" height="25" viewBox="0 0 106 25" fill="none" xmlns="http://www.w3.org/2000/svg"><path d="M30.02 4.068h.727a.92.92 0 00.702-.207.9.9 0 00.322-.651c0-.496-.377-.817-1.017-.817a.976.976 0 00-.728.192.957.957 0 00-.368.65h-.798c.027-.466.25-.9.614-1.2a1.716 1.716 0 011.306-.372c1.07 0 1.824.593 1.824 1.446a1.253 1.253 0 01-.988 1.23v.064c.696.03 1.237.612 1.21 1.3-.05.482-.294.922-.676 1.223-.382.3-.87.437-1.355.377a1.82 1.82 0 01-1.362-.367c-.385-.3-.63-.742-.68-1.225h.811c.05.515.527.847 1.231.847.705 0 1.165-.373 1.165-.898 0-.534-.433-.862-1.19-.862h-.75v-.73zm4.198 1.472c0-.73.55-1.152 1.526-1.212l1.11-.063v-.35c0-.43-.285-.672-.839-.672-.452 0-.764.164-.855.451h-.783c.082-.697.746-1.144 1.676-1.144 1.029 0 1.609.507 1.609 1.364v2.774h-.78v-.57h-.064c-.265.416-.736.66-1.232.637a1.247 1.247 0 01-.956-.307 1.22 1.22 0 01-.412-.908zm2.637-.347v-.34l-1.002.064c-.565.037-.82.228-.82.585 0 .366.32.579.76.579.26.026.52-.054.72-.221a.954.954 0 00.342-.667zm2.728-1.969V6.61h-.81V2.55h2.701v.674h-1.891zm6.662 1.422c0 1.29-.659 2.098-1.694 2.098a1.34 1.34 0 01-1.263-.682h-.064v1.965h-.81v-5.41h.78v.672h.06a1.428 1.428 0 011.289-.739c1.043 0 1.702.805 1.702 2.096zm-.832 0c0-.858-.41-1.376-1.096-1.376-.682 0-1.108.53-1.108 1.38 0 .845.426 1.375 1.104 1.375.69 0 1.1-.518 1.1-1.38zm1.974 3.418v-.69c.087.011.176.016.264.015a.7.7 0 00.742-.567l.06-.197L46.97 2.55h.881l1.029 3.225h.064l1.024-3.225h.859l-1.53 4.227c-.35.988-.738 1.305-1.574 1.305a3.57 3.57 0 01-.335-.018zm4.14-2.514h.806c.08.357.418.544.892.544.54 0 .87-.235.87-.6 0-.392-.297-.579-.87-.579h-.613v-.622h.603c.49 0 .738-.186.738-.526 0-.298-.24-.525-.738-.525-.453 0-.784.19-.836.51h-.78a1.435 1.435 0 011.616-1.189c.975 0 1.532.437 1.532 1.122.01.394-.26.74-.647.832v.063c.463.06.807.452.802.914 0 .771-.663 1.282-1.677 1.282-.895 0-1.623-.406-1.698-1.227zm4.555 1.06V2.55h.802v2.792h.064l1.89-2.792h.803v4.06h-.802V3.802h-.06L56.883 6.61h-.802zm7.944-3.386h-1.291V6.61h-.81V3.224h-1.292V2.55h3.393v.674zm4.848 2.368a1.667 1.667 0 01-1.778 1.175 1.872 1.872 0 01-1.438-.614 1.831 1.831 0 01-.457-1.482 1.86 1.86 0 01.457-1.488 1.9 1.9 0 011.434-.633c1.142 0 1.831.772 1.831 2.047v.28h-2.896v.044c-.026.301.078.6.285.821.209.222.501.346.807.342a.986.986 0 00.975-.492h.78zm-2.847-1.308h2.07a.973.973 0 00-.269-.747.995.995 0 00-.74-.305 1.053 1.053 0 00-.755.304c-.2.198-.31.468-.306.748zm5.535-1.734h1.85c.802 0 1.272.402 1.272 1.032a.874.874 0 01-.693.858v.063a.93.93 0 01.877.936c0 .708-.538 1.17-1.438 1.17h-1.868V2.55zm.802.615v1.051h.803c.489 0 .723-.186.723-.53 0-.316-.204-.521-.633-.521h-.893zm0 1.64v1.19h.96c.479 0 .735-.21.735-.593 0-.407-.29-.597-.836-.597h-.859zM53.348 14c-2.186 0-3.917 1.623-3.917 3.877 0 2.164 1.73 3.877 3.917 3.877 2.186 0 3.917-1.623 3.917-3.877 0-2.344-1.73-3.877-3.917-3.877zm0 6.131c-1.184 0-2.186-.991-2.186-2.344 0-1.352 1.002-2.344 2.186-2.344s2.186.902 2.186 2.344c0 1.353-1.002 2.344-2.186 2.344zm-8.471-6.13c-2.186 0-3.917 1.622-3.917 3.876 0 2.164 1.73 3.877 3.917 3.877 2.186 0 3.916-1.623 3.916-3.877 0-2.344-1.73-3.877-3.916-3.877zm0 6.13c-1.184 0-2.186-.991-2.186-2.344 0-1.352 1.002-2.344 2.186-2.344s2.186.902 2.186 2.344c0 1.353-1.002 2.344-2.186 2.344zm-10.111-4.959v1.623h3.917c-.091.902-.456 1.623-.911 2.074-.547.541-1.458 1.172-3.006 1.172-2.46 0-4.281-1.893-4.281-4.328 0-2.434 1.913-4.327 4.28-4.327 1.276 0 2.278.54 3.007 1.172l1.184-1.172c-1.002-.902-2.277-1.623-4.1-1.623-3.278 0-6.102 2.704-6.102 5.95s2.824 5.951 6.103 5.951c1.822 0 3.097-.541 4.19-1.713 1.093-1.082 1.457-2.615 1.457-3.787 0-.36 0-.721-.09-.992h-5.648zm41.354 1.263C75.756 15.533 74.845 14 72.841 14s-3.643 1.533-3.643 3.877c0 2.164 1.64 3.877 3.825 3.877 1.731 0 2.824-1.082 3.188-1.713l-1.275-.901c-.455.63-1.002 1.081-1.913 1.081-.91 0-1.457-.36-1.913-1.172l5.192-2.164-.182-.45zm-5.283 1.262c0-1.443 1.184-2.254 2.004-2.254.638 0 1.275.36 1.458.811l-3.462 1.443zm-4.281 3.697h1.73v-11.27h-1.73v11.27zm-2.733-6.582c-.455-.451-1.184-.902-2.095-.902-1.913 0-3.735 1.713-3.735 3.877a3.752 3.752 0 003.735 3.787c.911 0 1.64-.451 2.004-.902h.091v.541c0 1.443-.82 2.254-2.095 2.254-1.002 0-1.73-.721-1.913-1.352l-1.457.63c.455.993 1.548 2.255 3.461 2.255 2.004 0 3.644-1.172 3.644-3.967V14.18h-1.64v.63zm-2.004 5.32c-1.184 0-2.186-.992-2.186-2.345 0-1.352 1.002-2.344 2.186-2.344s2.095.992 2.095 2.344c0 1.353-.91 2.344-2.095 2.344zm22.226-10.009h-4.099v11.27h1.73v-4.237h2.37c1.912 0 3.734-1.352 3.734-3.516 0-2.164-1.822-3.517-3.735-3.517zm.091 5.41h-2.46v-3.877h2.46c1.275 0 2.004 1.082 2.004 1.893-.091.992-.82 1.984-2.004 1.984zm10.475-1.623c-1.275 0-2.55.541-3.005 1.713l1.548.631c.364-.63.91-.811 1.549-.811.91 0 1.73.54 1.821 1.442v.09c-.273-.18-1.002-.45-1.73-.45-1.64 0-3.28.901-3.28 2.524 0 1.533 1.367 2.525 2.824 2.525 1.184 0 1.73-.541 2.186-1.082h.091v.901h1.64v-4.327c-.182-1.984-1.73-3.156-3.644-3.156zm-.182 6.221c-.546 0-1.366-.27-1.366-.991 0-.902 1.002-1.173 1.822-1.173.728 0 1.093.18 1.548.361-.182 1.082-1.093 1.803-2.004 1.803zm9.565-5.95l-1.913 4.868h-.091l-2.004-4.868h-1.822l3.006 6.852-1.73 3.787h1.73l4.645-10.64h-1.821zm-15.303 7.213h1.73v-11.27h-1.73v11.27zM20.3 12.406c.544-.31.702-.597.702-.823 0-.227-.154-.546-.703-.856l-4.084-2.308L13 11.574l3.21 3.149 4.09-2.317zM.57.78a2.08 2.08 0 00-.144.778v19.926c0 .346.074.655.2.903l10.93-10.82L.57.78zm14.722 7.131l-3.02 2.956L1.717.504l.022-.002c.196-.014.463.039.815.231l12.74 7.178z" fill="#FFFF01"/><path fill-rule="evenodd" clip-rule="evenodd" d="M15.288 15.24l-3.019-2.956L1.745 22.687c.208.004.475-.056.826-.208l12.717-7.239z" fill="#FFFF01"/></svg>