<svg width="194" height="32" viewBox="0 0 194 32" fill="none" xmlns="http://www.w3.org/2000/svg"><path d="M111.867 23.04h-.89v6.334h.89V23.04zm-66.863 0h-3.981v6.343h.89v-5.574h2.201v5.574h.89V23.04zm39.224 0h-1.375l-1.132 4.174-.207 1.281-.234-1.281-1.132-4.174h-1.375v6.343h.845v-5.784l1.573 5.784h.593l1.582-5.574v5.574h.854V23.04h.008zm19.262 0h-.881v2.627h-2.202V23.04h-.89v6.343h.89v-2.956h2.202v2.956h.881V23.04zm3.506 5.602v-2.197h.997c.378 0 .656.091.818.274.171.184.252.458.252.815 0 .375-.09.65-.27.833-.18.183-.467.274-.872.274h-.925zm0-5.602h-.89v6.343h2.148c.503 0 .917-.165 1.231-.494.315-.34.477-.77.477-1.31 0-.548-.162-.988-.477-1.335-.323-.348-.728-.522-1.231-.522h-1.258V23.04zm11.567 0h-1.033l-2.068 4.833-.197.75.09-.75V23.04h-.854v6.343h1.033l2.068-4.805.197-.787-.09.787v4.805h.845V23.04h.009zm16.305 0h-.917l-1.402 5.052-1.465-5.052h-.917l1.977 6.444c-.125.42-.26.722-.404.924a.822.822 0 01-.692.366c-.234 0-.45-.046-.656-.146v.796c.206.073.422.11.629.11.557 0 .989-.211 1.294-.632.189-.265.405-.769.62-1.492l1.933-6.37zm6.04 0h-3.973v6.343h.881v-5.574h2.202v5.574h.89V23.04zm20.7 0h-1.376l-1.132 4.174-.207 1.281-.234-1.281-1.132-4.174h-1.375v6.343h.845v-5.784l1.573 5.784h.593l1.582-5.574v5.574h.854V23.04h.009zm19.324 0h-1.043l-2.157 2.957V23.04h-.881v6.343h.881V27.13l.674-.906 1.546 3.158h1.034l-1.977-3.88 1.923-2.463zm11.343 0h-4.134v.76h1.626v5.574h.881V23.8h1.618v-.76h.009zM48.932 28.733c-.297 0-.512-.091-.647-.256-.135-.174-.198-.412-.198-.714 0-.513.198-.897.593-1.153.081-.046.333-.174.773-.375l.612-.312v.925c0 .384-.01.695-.045.933-.027.238-.081.403-.162.494a1.102 1.102 0 01-.926.458zm.288-5.857c-.602 0-1.052.155-1.349.457-.296.302-.449.778-.449 1.419h.791c0-.384.072-.66.216-.842.135-.183.368-.275.692-.275.36 0 .602.073.737.22.135.146.207.403.207.76 0 .256-.018.43-.063.54-.045.11-.1.183-.171.21a6.702 6.702 0 01-.602.275c-.171.073-.342.137-.504.2-.575.23-.97.468-1.186.724-.243.284-.36.695-.36 1.235 0 1.163.53 1.74 1.6 1.74.297 0 .566-.092.827-.294.26-.192.45-.439.575-.723.063.403.171.66.324.778.117.092.324.138.63.138.161 0 .287-.028.359-.073v-.641h-.198c-.225 0-.342-.165-.342-.513v-3.734c0-.457-.134-.833-.413-1.125-.297-.312-.746-.476-1.321-.476zm6.48 5.912c-.54 0-.89-.33-1.06-.98-.09-.32-.126-.85-.126-1.62 0-.686.054-1.216.161-1.61.18-.631.513-.952 1.016-.952s.845.302 1.034.924c.126.385.189.897.189 1.538 0 .888-.09 1.556-.28 2.004-.188.467-.493.696-.934.696zm.099-5.912c-.26 0-.512.073-.746.22a1.565 1.565 0 00-.566.658v-.695h-.845v8.474h.89v-2.8c.18.265.377.467.584.613.216.147.467.21.764.21.737 0 1.258-.329 1.573-.997.26-.549.386-1.364.386-2.444 0-.979-.143-1.748-.431-2.287-.35-.632-.88-.952-1.609-.952zm18.354 5.912c-.486 0-.827-.229-1.034-.696-.18-.393-.27-.997-.27-1.812 0-.952.108-1.638.315-2.04.207-.403.54-.605.998-.605.476 0 .809.202 1.015.604.207.403.306 1.08.306 2.041 0 .806-.09 1.41-.27 1.812-.215.467-.557.696-1.06.696zm0-5.912c-.72 0-1.268.247-1.654.75-.386.494-.575 1.18-.575 2.041h-1.06V23.04h-.89v6.343h.89v-2.956h1.069c0 1.125.215 1.94.638 2.462.368.439.89.659 1.582.659.737 0 1.285-.248 1.645-.75.395-.56.593-1.484.593-2.801 0-.989-.189-1.758-.557-2.307-.36-.54-.926-.814-1.681-.814zm13.32 2.672c0-.55.054-.98.171-1.272.17-.43.476-.64.908-.64.323 0 .575.127.755.375.17.256.26.768.26 1.528h-2.094v.01zm1.07-2.672c-.755 0-1.294.357-1.618 1.07-.252.54-.368 1.29-.368 2.252 0 1.226.18 2.105.548 2.636.323.476.836.704 1.51.704.62 0 1.096-.22 1.41-.677.288-.393.423-.924.423-1.602h-.827c0 .43-.063.778-.197 1.035-.171.32-.45.485-.827.485-.477 0-.8-.23-.953-.696-.108-.311-.162-.915-.162-1.812h3.03c0-1.373-.18-2.297-.54-2.773-.315-.412-.791-.622-1.43-.622zm6.408 5.912c-.539 0-.89-.33-1.06-.98-.081-.32-.126-.85-.126-1.62 0-.686.054-1.216.162-1.61.18-.631.512-.952 1.015-.952.495 0 .845.302 1.043.924.126.385.18.897.18 1.538 0 .888-.09 1.556-.279 2.004-.189.467-.503.696-.935.696zm.09-5.912c-.26 0-.512.073-.746.22-.233.146-.422.365-.575.658v-.695h-.845v8.474h.89v-2.8c.18.265.377.467.584.613.216.147.468.21.764.21.737 0 1.267-.329 1.573-.997.252-.549.387-1.364.387-2.444 0-.979-.144-1.748-.432-2.287-.341-.632-.872-.952-1.6-.952zm31.728 0c-.817 0-1.402.366-1.752 1.08-.27.558-.405 1.345-.405 2.343 0 .997.117 1.748.369 2.242.332.677.935 1.006 1.788 1.006.657 0 1.142-.247 1.475-.732.269-.412.404-.952.404-1.638h-.836c0 .494-.063.86-.189 1.108-.17.338-.476.512-.907.512-.504 0-.845-.293-1.025-.87-.108-.347-.162-.887-.162-1.62 0-.795.072-1.4.225-1.83.198-.549.53-.833 1.006-.833.378 0 .657.147.827.44.135.229.198.549.198.96h.827c0-.622-.153-1.134-.458-1.518-.333-.44-.8-.65-1.385-.65zm17.357 2.672c0-.55.062-.98.179-1.272.171-.43.477-.64.908-.64.324 0 .575.127.755.375.18.256.261.768.261 1.528h-2.103v.01zm1.078-2.672c-.755 0-1.294.357-1.618 1.07-.251.54-.377 1.29-.377 2.252 0 1.226.18 2.105.548 2.636.324.476.836.704 1.51.704.62 0 1.088-.22 1.411-.677.279-.393.423-.924.423-1.602h-.827c0 .43-.063.778-.198 1.035-.171.32-.44.485-.827.485-.485 0-.8-.23-.953-.696-.108-.311-.17-.915-.17-1.812h3.029c0-1.373-.18-2.297-.54-2.773-.305-.412-.773-.622-1.411-.622zm6.409 5.912c-.54 0-.89-.33-1.061-.98-.09-.32-.126-.85-.126-1.62 0-.686.054-1.216.162-1.61.18-.631.512-.952 1.016-.952.494 0 .845.302 1.042.924.126.385.18.897.18 1.538 0 .888-.09 1.556-.279 2.004-.188.467-.503.696-.934.696zm.09-5.912c-.261 0-.513.073-.746.22-.234.146-.423.365-.576.658v-.695h-.845v8.474h.89v-2.8c.18.265.369.467.584.613.216.147.468.21.764.21.738 0 1.259-.329 1.573-.997.261-.549.387-1.364.387-2.444 0-.979-.144-1.748-.432-2.287-.332-.632-.871-.952-1.599-.952zm13.841 5.857c-.296 0-.512-.091-.647-.256-.135-.174-.198-.412-.198-.714 0-.513.198-.897.603-1.153.072-.046.332-.174.773-.375l.611-.312v.925c0 .384-.009.695-.036.933-.027.238-.081.403-.162.494a1.134 1.134 0 01-.944.458zm.288-5.857c-.593 0-1.043.155-1.348.457-.297.302-.45.778-.45 1.419h.791c0-.384.072-.66.207-.842.135-.183.378-.275.701-.275.36 0 .602.073.746.22.135.146.198.403.198.76 0 .256-.018.43-.063.54-.036.11-.099.183-.171.21a6.664 6.664 0 01-.602.275c-.171.073-.342.137-.503.2-.576.23-.971.468-1.187.724-.243.284-.359.695-.359 1.235 0 1.163.53 1.74 1.6 1.74.296 0 .575-.092.826-.294.252-.192.45-.439.576-.723.063.403.17.66.323.778.117.092.324.138.629.138a.735.735 0 00.36-.073v-.641h-.198c-.224 0-.341-.165-.341-.513v-3.734c0-.457-.135-.833-.405-1.125-.305-.312-.746-.476-1.33-.476zm6.489 5.912c-.539 0-.889-.33-1.06-.98-.081-.32-.126-.85-.126-1.62 0-.686.054-1.216.162-1.61.18-.631.521-.952 1.015-.952.495 0 .845.302 1.034.924.126.385.189.897.189 1.538 0 .888-.099 1.556-.279 2.004-.189.467-.503.696-.935.696zm.09-5.912c-.26 0-.512.073-.746.22-.233.146-.422.365-.575.658v-.695h-.845v8.474h.89v-2.8c.18.265.368.467.584.613.216.147.468.21.764.21.737 0 1.259-.329 1.573-.997.261-.549.387-1.364.387-2.444 0-.979-.144-1.748-.432-2.287-.332-.632-.872-.952-1.6-.952zm11.056 2.672c0-.55.063-.98.179-1.272.171-.43.477-.64.908-.64a.88.88 0 01.755.375c.171.256.261.768.261 1.528h-2.103v.01zm1.069-2.672c-.755 0-1.294.357-1.618 1.07-.251.54-.377 1.29-.377 2.252 0 1.226.18 2.105.548 2.636.324.476.827.704 1.51.704.62 0 1.088-.22 1.411-.677.279-.393.414-.924.414-1.602h-.827c0 .43-.063.778-.198 1.035-.162.32-.44.485-.827.485-.476 0-.8-.23-.953-.696-.107-.311-.17-.915-.17-1.812h3.029c0-1.373-.18-2.297-.54-2.773-.287-.412-.764-.622-1.402-.622zm-66.557-1.886h-.467c-.054.293-.153.495-.306.623-.153.119-.359.174-.638.174a1.02 1.02 0 01-.638-.193c-.162-.128-.279-.33-.333-.595h-.458c0 .476.135.833.413 1.08.243.22.558.33.971.33.422 0 .773-.12 1.043-.357.278-.247.413-.595.413-1.062zm-55.825 7.798c-.45 0-.764-.229-.944-.668-.189-.449-.279-1.126-.279-2.023 0-.64.063-1.153.189-1.547.198-.604.548-.915 1.052-.915.512 0 .854.311 1.033.952.1.357.153.897.153 1.61 0 .751-.045 1.291-.144 1.63-.17.64-.521.96-1.06.96zm3.253 0c-.52 0-.871-.33-1.051-.98-.09-.338-.144-.878-.144-1.62 0-.695.054-1.235.162-1.62.18-.622.512-.933 1.006-.933.504 0 .845.302 1.043.925.126.384.189.896.189 1.528 0 .897-.09 1.565-.279 2.023-.18.448-.494.677-.926.677zm-1.222-7.953h-.827l-.009 2.92a1.489 1.489 0 00-.557-.66 1.337 1.337 0 00-.737-.22c-.737 0-1.276.321-1.618.962-.279.521-.422 1.272-.422 2.251 0 1.07.125 1.876.377 2.416.315.687.854 1.034 1.636 1.034.305 0 .557-.073.755-.201.198-.137.395-.348.584-.622v2.8h.863v-2.8c.18.265.368.476.575.613.207.146.45.21.746.21.728 0 1.258-.347 1.591-1.043.27-.567.405-1.373.405-2.407 0-.97-.144-1.72-.44-2.27-.342-.631-.882-.952-1.61-.952a1.4 1.4 0 00-.755.22c-.233.147-.413.366-.557.66v-2.911zM68.374.975H66.81l-4.647 16.638h1.285L67.6 2.21l4.153 15.403h1.267L68.374.975zm26.272 0h-8.988v1.327h3.838v15.311h1.303V2.302h3.137l.71-1.327zm21.472 0h-7.702v16.638h7.352v-1.327h-6.049V9.44h5.213V8.113h-5.213V2.302h5.707l.692-1.327zm13.977 7.861c-.818 0-1.222-.009-1.798-.466-.844-.678-1.222-1.767-1.222-2.838 0-1.217.458-2.47 1.528-3.111A3.028 3.028 0 01130.158 2h2.463v6.836h-2.526zm3.811-7.861h-3.856c-1.204 0-2.382.357-3.218 1.281-.791.888-1.132 2.279-1.132 3.24 0 .96.153 1.437.377 2.077.414 1.181 1.214 1.858 2.526 2.206l-3.883 7.825 1.456-.01 3.676-7.577h2.769v7.578h1.276V.975h.009zm4.988 15.449V9.157h2.382c1.07 0 1.924.302 2.571.924.638.622.962 1.538.962 2.755 0 2.389-1.034 3.588-3.119 3.588h-2.796zM145.69.974h-8.099v16.64h3.398c1.24 0 2.238-.147 2.984-.44a2.989 2.989 0 001.654-1.538c.35-.732.521-1.748.521-3.038 0-1.556-.414-2.71-1.258-3.487-.818-.76-1.951-1.153-3.389-1.153h-.063l-2.544.018V2.302h6.094l.702-1.327zm8.493 0h-1.564l-4.647 16.64h1.277l4.152-15.404 4.153 15.403h1.276L154.183.975zm27.765 0h-1.501l-6.067 8.75V.974h-1.259v16.64h1.259v-5.977l1.932-2.444 4.359 8.411 1.456.01-4.943-9.638 4.764-7.001zM56.132 16.873c-.72 0-1.33-.293-1.843-.879-.548-.622-.97-1.437-1.258-2.443a13.882 13.882 0 01-.53-3.14 17.79 17.79 0 01.269-4.42c.225-1.171.602-2.16 1.133-2.974.53-.806 1.213-1.236 2.058-1.29.054 0 .108-.01.162-.01.692 0 1.294.284 1.797.851.54.613.962 1.419 1.259 2.407.296.989.476 2.014.539 3.075.054.925.045 1.876-.036 2.874a13.362 13.362 0 01-.503 2.819c-.252.878-.62 1.61-1.106 2.178-.485.568-1.07.879-1.78.915-.053.037-.108.037-.161.037zM56.15.7c-.09 0-.171 0-.261.01-1.025.063-1.897.53-2.634 1.4-.728.878-1.276 1.986-1.635 3.34a15.797 15.797 0 00-.513 4.942 14.56 14.56 0 00.477 2.956c.26.934.61 1.74 1.06 2.444.45.705.98 1.236 1.6 1.602.548.33 1.15.494 1.807.494.08 0 .17 0 .251-.01.845-.045 1.582-.366 2.23-.951.638-.586 1.159-1.355 1.563-2.297.405-.934.684-1.986.845-3.13a16.84 16.84 0 00.153-3.423c-.08-1.419-.342-2.69-.782-3.844-.44-1.144-1.033-2.032-1.788-2.673A3.633 3.633 0 0056.15.7zm23.198 16.172c-.72 0-1.33-.293-1.843-.879-.548-.622-.97-1.437-1.258-2.443a13.882 13.882 0 01-.53-3.14 17.79 17.79 0 01.27-4.42c.224-1.171.602-2.16 1.132-2.974.53-.806 1.222-1.236 2.058-1.29.054 0 .108-.01.162-.01.692 0 1.294.284 1.798.851.548.613.961 1.419 1.258 2.407.288.989.467 2.014.54 3.075.053.925.044 1.876-.037 2.874a13.87 13.87 0 01-.503 2.819c-.252.878-.62 1.61-1.106 2.178-.485.568-1.078.879-1.78.915-.053.037-.107.037-.161.037zM79.357.7c-.09 0-.17 0-.26.01-1.025.063-1.897.53-2.634 1.4-.728.878-1.276 1.986-1.636 3.34a15.797 15.797 0 00-.512 4.942 14.56 14.56 0 00.476 2.956c.26.934.611 1.74 1.06 2.444.45.705.98 1.236 1.6 1.602a3.44 3.44 0 001.807.494c.081 0 .17 0 .252-.01.845-.045 1.582-.366 2.229-.951.638-.586 1.16-1.355 1.564-2.297.404-.934.683-1.986.845-3.13.17-1.144.224-2.288.153-3.423-.09-1.419-.342-2.69-.782-3.844-.44-1.144-1.034-2.032-1.79-2.673A3.599 3.599 0 0079.358.7zm21.257 16.172c-.71 0-1.33-.293-1.843-.879-.548-.622-.97-1.437-1.258-2.443a14.408 14.408 0 01-.53-3.14c-.09-1.5-.018-2.937.27-4.42.233-1.171.602-2.16 1.14-2.974.531-.806 1.214-1.236 2.059-1.29.054 0 .108-.01.162-.01.692 0 1.285.284 1.798.851.539.613.961 1.419 1.258 2.407.297.989.476 2.014.539 3.075.054.925.045 1.876-.036 2.874a13.343 13.343 0 01-.503 2.819c-.252.878-.62 1.61-1.106 2.178-.485.568-1.078.879-1.788.915-.054.037-.108.037-.162.037zM100.632.7c-.081 0-.171 0-.261.01-1.024.063-1.896.53-2.633 1.4-.728.878-1.277 1.986-1.636 3.34a15.797 15.797 0 00-.512 4.942 14.56 14.56 0 00.476 2.956c.26.934.611 1.74 1.06 2.444.45.705.98 1.236 1.591 1.602.549.33 1.15.494 1.807.494.081 0 .171 0 .252-.01a3.497 3.497 0 002.229-.951c.647-.586 1.159-1.355 1.564-2.297a12.96 12.96 0 00.854-3.13 17.56 17.56 0 00.152-3.423c-.08-1.419-.341-2.69-.782-3.844-.44-1.144-1.033-2.032-1.797-2.673a3.558 3.558 0 00-2.364-.86zm64.661 16.172c-.719 0-1.331-.293-1.843-.879-.548-.622-.971-1.437-1.258-2.443a14.385 14.385 0 01-.531-3.14c-.089-1.5-.018-2.937.27-4.42.225-1.171.602-2.16 1.133-2.974.53-.806 1.222-1.236 2.067-1.29.054 0 .108-.01.162-.01.692 0 1.294.284 1.797.851.54.613.962 1.419 1.259 2.407.296.989.476 2.014.539 3.075.054.925.045 1.876-.036 2.874a14.672 14.672 0 01-.503 2.819c-.261.878-.621 1.61-1.106 2.178-.476.568-1.078.879-1.78.915-.071.037-.125.037-.17.037zM165.302.7c-.09 0-.171 0-.261.01-1.025.063-1.897.53-2.634 1.4-.728.878-1.276 1.986-1.635 3.34a15.777 15.777 0 00-.513 4.942 14.56 14.56 0 00.477 2.956c.26.934.611 1.74 1.051 2.444.45.705.98 1.236 1.6 1.602.539.33 1.142.494 1.807.494.081 0 .171 0 .251-.01.845-.045 1.582-.366 2.23-.951.638-.586 1.168-1.355 1.563-2.297.405-.934.684-1.986.854-3.13.171-1.144.216-2.288.153-3.423-.081-1.419-.341-2.69-.782-3.844-.44-1.144-1.033-2.032-1.797-2.673a3.579 3.579 0 00-2.364-.86zm23.036 16.172c-.719 0-1.33-.293-1.842-.879-.549-.622-.971-1.437-1.268-2.443a14.444 14.444 0 01-.53-3.14c-.09-1.5-.018-2.937.27-4.42.224-1.171.602-2.16 1.132-2.974.531-.806 1.223-1.236 2.059-1.29.053 0 .107-.01.161-.01.692 0 1.295.284 1.798.851.539.613.962 1.419 1.258 2.407.288.989.477 2.014.54 3.075.053.925.044 1.876-.036 2.874a13.941 13.941 0 01-.504 2.819c-.251.878-.62 1.61-1.105 2.178-.486.568-1.079.879-1.78.915-.045.037-.099.037-.153.037zM188.356.7c-.09 0-.171 0-.26.01-1.025.063-1.897.53-2.634 1.4-.728.878-1.276 1.986-1.636 3.34a15.806 15.806 0 00-.512 4.942 14.63 14.63 0 00.476 2.956c.261.934.611 1.74 1.061 2.444.449.705.98 1.236 1.6 1.602.548.33 1.141.494 1.806.494.081 0 .171 0 .252-.01.845-.045 1.582-.366 2.229-.951.638-.586 1.169-1.355 1.564-2.297.404-.934.683-1.986.854-3.13.117-.797.18-1.584.18-2.38v-.119c0-.311-.009-.622-.027-.933-.081-1.419-.342-2.691-.782-3.844-.441-1.144-1.034-2.032-1.798-2.673a3.673 3.673 0 00-2.373-.85zM44.312.7c-.602 0-1.16.165-1.69.504-.53.338-.952.842-1.258 1.5-.287.623-.44 1.364-.467 2.224h1.123v-.11c0-.768.081-1.18.324-1.71a2.5 2.5 0 01.872-1.072 2.165 2.165 0 011.141-.347h.01c.96.009 1.67.54 2.102 1.308.36.66.35 1.446.35 2.069-.008.686-.089 1.482-.853 2.334-.566.64-1.393.933-2.328.933h-.44V9.45h.503c.917 0 1.968.146 2.633.86.755.814.773 1.629.836 2.938.063 1.217-.485 2.636-1.492 3.203-.413.238-.764.375-1.366.393h-.063c-.692 0-1.384-.384-1.87-.97a3.832 3.832 0 01-.637-1.217 4.59 4.59 0 01-.216-1.364v-.128h-1.124c.018.906.144 1.767.576 2.581.395.732.89 1.272 1.51 1.63a3.93 3.93 0 001.995.53c.701 0 1.402-.137 2.004-.54 1.393-.924 1.915-2.215 1.987-3.926.063-1.263-.243-2.764-.728-3.441-.486-.678-1.15-1.126-1.996-1.346.252-.146.486-.302.71-.457a4.35 4.35 0 00.549-.476c.332-.339.575-.723.728-1.153.152-.44.224-.97.224-1.62 0-.915-.161-1.693-.476-2.334-.315-.64-.746-1.117-1.303-1.437C45.615.856 45.058.7 44.312.7z" fill="#FFFF01"/><path fill-rule="evenodd" clip-rule="evenodd" d="M15.494 9.472a6.456 6.456 0 01-.994 3.454 6.468 6.468 0 01-.992-3.454v-.289c0-1.27.365-2.455.992-3.452.63.997.994 2.182.994 3.452v.289zm0 10.888c0 1.27-.365 2.455-.994 3.454a6.48 6.48 0 01-.992-3.454v-.288a6.49 6.49 0 01.992-3.456c.63.999.994 2.187.994 3.456v.288zM28.067 2.78V.7h-8.325A8.233 8.233 0 0014.5 2.626 8.24 8.24 0 009.257.7H.934v2.08h8.315a6.11 6.11 0 013.83 1.354 8.597 8.597 0 00-1.68 5.114v.388c0 .81.114 1.6.326 2.35a8.112 8.112 0 00-2.505-.396H.934v2.077h8.315c1.295 0 2.5.408 3.499 1.103a6.077 6.077 0 01-3.5 1.106H.935v2.301H9.22a8.17 8.17 0 002.502-.39 8.7 8.7 0 00-.322 2.348v.386c0 1.85.584 3.564 1.575 4.968a6.098 6.098 0 01-3.726 1.274H.934v2.304H9.22a8.228 8.228 0 005.28-1.923 8.232 8.232 0 005.282 1.923h8.285v-2.304h-8.315a6.098 6.098 0 01-3.726-1.274 8.593 8.593 0 001.575-4.968v-.387a8.52 8.52 0 00-.327-2.348 8.21 8.21 0 002.508.391h8.285v-2.3h-8.315a6.071 6.071 0 01-3.498-1.107 6.103 6.103 0 013.498-1.103h8.315V11.59h-8.285c-.872 0-1.715.139-2.508.395.214-.75.327-1.54.327-2.35v-.387a8.607 8.607 0 00-1.678-5.114 6.104 6.104 0 013.829-1.354h8.315z" fill="#FFFF01"/></svg>