<svg width="199" height="40" viewBox="0 0 199 40" fill="none" xmlns="http://www.w3.org/2000/svg"><path d="M92.991 28.982h-1.157v8.216h1.157v-8.216zm-87.003 0H.807v8.228h1.158v-7.23H4.83v7.23h1.158v-8.228zm51.04 0h-1.79l-1.474 5.414-.269 1.662-.304-1.662-1.473-5.414h-1.79v8.228h1.1v-7.504l2.047 7.504h.771l2.059-7.23v7.23h1.11v-8.228h.013zm25.063 0h-1.146v3.407H78.08v-3.407h-1.158v8.228h1.158v-3.835h2.865v3.835h1.146v-8.228zm4.561 7.266v-2.85h1.299c.49 0 .853.12 1.064.357.222.237.327.593.327 1.056 0 .487-.117.843-.35 1.081-.234.237-.609.356-1.135.356h-1.205zm0-7.266h-1.157v8.228h2.795c.655 0 1.193-.214 1.602-.641.41-.44.62-.998.62-1.698 0-.713-.21-1.282-.62-1.734-.42-.45-.947-.676-1.602-.676h-1.638v-3.48zm15.053 0h-1.345l-2.69 6.269-.258.973.117-.973v-6.27h-1.11v8.229h1.344l2.69-6.233.258-1.021-.117 1.02v6.234h1.099v-8.228h.012zm21.215 0h-1.193l-1.824 6.554-1.906-6.554h-1.193l2.573 8.358c-.164.547-.34.938-.527 1.2-.234.32-.538.474-.9.474-.304 0-.585-.059-.854-.19v1.034c.269.095.55.142.819.142.725 0 1.286-.273 1.684-.82.245-.343.526-.997.807-1.934l2.514-8.264zm7.86 0h-5.17v8.228h1.147v-7.23h2.865v7.23h1.158v-8.228zm26.935 0h-1.79l-1.473 5.414-.269 1.662-.304-1.662-1.474-5.414h-1.79v8.228h1.1v-7.504l2.047 7.504h.771l2.059-7.23v7.23h1.111v-8.228h.012zm25.145 0h-1.357l-2.806 3.835v-3.835h-1.147v8.228h1.147v-2.92l.877-1.176 2.011 4.096h1.345l-2.573-5.034 2.503-3.194zm14.76 0h-5.38v.985h2.117v7.231h1.146v-7.23h2.105v-.986h.012zM11.1 36.367c-.387 0-.668-.119-.843-.333-.175-.225-.257-.534-.257-.926 0-.664.257-1.163.772-1.496a16.6 16.6 0 011.005-.486l.796-.404v1.2c0 .498-.012.901-.059 1.21-.035.309-.105.523-.21.641a1.435 1.435 0 01-1.205.594zm.373-7.599c-.783 0-1.368.202-1.754.594-.386.392-.585 1.009-.585 1.84h1.03c0-.499.093-.855.28-1.092.176-.238.48-.356.9-.356.469 0 .784.095.96.285.175.19.269.522.269.985 0 .332-.024.558-.082.7-.059.143-.129.238-.222.274-.152.083-.41.201-.784.356-.222.095-.444.178-.655.261-.748.297-1.263.605-1.544.938-.316.368-.468.902-.468 1.603 0 1.508.69 2.256 2.082 2.256.386 0 .737-.119 1.076-.38.34-.25.585-.57.749-.938.082.522.222.855.42 1.009.153.119.422.178.82.178.21 0 .374-.035.467-.095v-.831h-.257c-.292 0-.444-.214-.444-.665v-4.844c0-.594-.176-1.08-.538-1.46-.386-.404-.971-.618-1.72-.618zm8.433 7.67c-.702 0-1.158-.427-1.38-1.27-.117-.416-.164-1.105-.164-2.102 0-.89.07-1.579.21-2.09.235-.819.667-1.234 1.322-1.234s1.1.392 1.345 1.199c.164.499.246 1.164.246 1.995 0 1.151-.117 2.018-.363 2.6-.245.605-.643.902-1.216.902zm.129-7.67c-.34 0-.667.095-.971.285-.304.19-.55.475-.737.855v-.902h-1.1V40h1.158v-3.633c.234.344.492.605.76.795.281.19.609.273.995.273.959 0 1.637-.427 2.046-1.294.34-.712.503-1.769.503-3.17 0-1.27-.187-2.267-.561-2.968-.456-.82-1.146-1.235-2.093-1.235zm23.882 7.67c-.632 0-1.076-.297-1.345-.902-.234-.51-.351-1.294-.351-2.351 0-1.235.14-2.125.41-2.648.268-.522.701-.783 1.297-.783.62 0 1.053.26 1.322.783.27.523.398 1.401.398 2.648 0 1.045-.117 1.828-.351 2.35-.28.606-.725.903-1.38.903zm0-7.67c-.936 0-1.65.32-2.152.974-.503.64-.749 1.531-.749 2.647h-1.38v-3.407h-1.158v8.228h1.158v-3.835h1.392c0 1.46.28 2.517.83 3.194.48.57 1.158.855 2.059.855.959 0 1.672-.321 2.14-.974.515-.724.772-1.923.772-3.633 0-1.282-.246-2.28-.725-2.992-.468-.7-1.205-1.057-2.187-1.057zm17.333 3.467c0-.712.07-1.27.222-1.65.222-.558.62-.831 1.181-.831.421 0 .749.166.983.486.222.333.339.998.339 1.983H61.25v.012zm1.391-3.467c-.982 0-1.684.463-2.105 1.39-.327.7-.48 1.673-.48 2.92 0 1.591.235 2.73.714 3.42.421.617 1.088.914 1.965.914.807 0 1.427-.285 1.836-.879.374-.51.55-1.2.55-2.078h-1.076c0 .558-.082 1.01-.257 1.342-.223.416-.585.63-1.076.63-.62 0-1.041-.298-1.24-.903-.14-.404-.21-1.187-.21-2.351h3.94c0-1.78-.233-2.98-.701-3.598-.41-.534-1.03-.807-1.86-.807zm8.34 7.67c-.702 0-1.158-.427-1.38-1.27-.106-.416-.164-1.105-.164-2.102 0-.89.07-1.579.21-2.09.234-.819.667-1.234 1.322-1.234.643 0 1.1.392 1.356 1.199.164.499.234 1.164.234 1.995 0 1.151-.117 2.018-.362 2.6-.246.605-.655.902-1.217.902zm.116-7.67c-.339 0-.666.095-.97.285-.304.19-.55.475-.749.855v-.902h-1.1V40h1.159v-3.633c.234.344.49.605.76.795.28.19.608.273.994.273.959 0 1.649-.427 2.047-1.294.327-.712.502-1.769.502-3.17 0-1.27-.187-2.267-.56-2.968-.445-.82-1.135-1.235-2.083-1.235zm41.286 0c-1.065 0-1.825.475-2.281 1.401-.351.724-.526 1.745-.526 3.04 0 1.294.152 2.267.479 2.908.433.88 1.217 1.307 2.328 1.307.853 0 1.485-.321 1.918-.95.351-.535.526-1.235.526-2.125h-1.088c0 .64-.082 1.116-.245 1.436-.222.44-.62.665-1.182.665-.654 0-1.099-.38-1.333-1.128-.14-.451-.21-1.152-.21-2.102 0-1.032.093-1.816.292-2.374.257-.712.69-1.08 1.31-1.08.491 0 .854.19 1.076.57.175.296.257.712.257 1.246h1.076c0-.807-.199-1.472-.596-1.97-.433-.57-1.041-.844-1.801-.844zm22.584 3.467c0-.712.082-1.27.234-1.65.222-.558.62-.831 1.181-.831.421 0 .748.166.982.486.234.333.34.998.34 1.983h-2.737v.012zm1.403-3.467c-.982 0-1.684.463-2.105 1.39-.327.7-.491 1.673-.491 2.92 0 1.591.234 2.73.713 3.42.421.617 1.088.914 1.965.914.807 0 1.415-.285 1.836-.879.363-.51.55-1.2.55-2.078h-1.076c0 .558-.082 1.01-.257 1.342-.222.416-.573.63-1.076.63-.632 0-1.041-.298-1.24-.903-.14-.404-.222-1.187-.222-2.351h3.941c0-1.78-.234-2.98-.702-3.598-.397-.534-1.005-.807-1.836-.807zm8.339 7.67c-.702 0-1.158-.427-1.38-1.27-.117-.416-.164-1.105-.164-2.102 0-.89.071-1.579.211-2.09.234-.819.667-1.234 1.321-1.234.644 0 1.1.392 1.357 1.199.164.499.234 1.164.234 1.995 0 1.151-.117 2.018-.362 2.6-.246.605-.655.902-1.217.902zm.117-7.67c-.339 0-.666.095-.971.285-.304.19-.549.475-.748.855v-.902h-1.099V40h1.157v-3.633c.234.344.48.605.761.795.28.19.608.273.994.273.959 0 1.637-.427 2.046-1.294.34-.712.503-1.769.503-3.17 0-1.27-.187-2.267-.561-2.968-.433-.82-1.135-1.235-2.082-1.235zm18.011 7.599c-.386 0-.666-.119-.842-.333-.175-.225-.257-.534-.257-.926 0-.664.257-1.163.784-1.496.093-.059.432-.225 1.005-.486l.796-.404v1.2c0 .498-.012.901-.047 1.21-.035.309-.105.523-.211.641a1.476 1.476 0 01-1.228.594zm.375-7.599c-.772 0-1.357.202-1.755.594-.386.392-.585 1.009-.585 1.84h1.03c0-.499.093-.855.269-1.092.175-.238.491-.356.912-.356.468 0 .784.095.971.285.175.19.257.522.257.985 0 .332-.023.558-.082.7-.047.143-.129.238-.222.274a8.65 8.65 0 01-.784.356c-.222.095-.444.178-.655.261-.748.297-1.263.605-1.543.938-.316.368-.468.902-.468 1.603 0 1.508.69 2.256 2.082 2.256a1.68 1.68 0 001.075-.38c.328-.25.585-.57.749-.938.082.522.222.855.421 1.009.152.119.421.178.819.178.21 0 .362-.035.468-.095v-.831h-.258c-.292 0-.444-.214-.444-.665v-4.844c0-.594-.176-1.08-.526-1.46-.398-.404-.971-.618-1.731-.618zm8.444 7.67c-.702 0-1.158-.427-1.38-1.27-.106-.416-.164-1.105-.164-2.102 0-.89.07-1.579.21-2.09.234-.819.679-1.234 1.322-1.234s1.099.392 1.345 1.199c.164.499.246 1.164.246 1.995 0 1.151-.129 2.018-.363 2.6-.245.605-.655.902-1.216.902zm.117-7.67c-.339 0-.667.095-.971.285-.304.19-.55.475-.749.855v-.902h-1.099V40h1.158v-3.633c.234.344.48.605.76.795.281.19.608.273.994.273.959 0 1.638-.427 2.047-1.294.339-.712.503-1.769.503-3.17 0-1.27-.187-2.267-.561-2.968-.433-.82-1.135-1.235-2.082-1.235zm14.385 3.467c0-.712.082-1.27.234-1.65.222-.558.62-.831 1.181-.831.421 0 .749.166.983.486.222.333.339.998.339 1.983h-2.737v.012zm1.392-3.467c-.982 0-1.684.463-2.105 1.39-.328.7-.491 1.673-.491 2.92 0 1.591.234 2.73.713 3.42.421.617 1.076.914 1.965.914.807 0 1.415-.285 1.836-.879.363-.51.538-1.2.538-2.078h-1.076c0 .558-.082 1.01-.257 1.342-.211.416-.573.63-1.076.63-.62 0-1.041-.298-1.24-.903-.14-.404-.222-1.187-.222-2.351h3.941c0-1.78-.234-2.98-.701-3.598-.375-.534-.995-.807-1.825-.807zm-86.606-2.446h-.608c-.07.38-.199.642-.397.808-.2.154-.468.225-.83.225-.34 0-.609-.083-.831-.249-.21-.166-.363-.428-.433-.772h-.596c0 .618.175 1.08.538 1.401.315.285.725.428 1.263.428.55 0 1.006-.155 1.356-.463.363-.321.538-.772.538-1.378zm-72.64 10.116c-.585 0-.995-.297-1.229-.867-.245-.581-.362-1.46-.362-2.623 0-.832.081-1.497.245-2.007.258-.784.714-1.187 1.369-1.187.666 0 1.11.403 1.345 1.234.128.463.198 1.164.198 2.09 0 .974-.058 1.674-.187 2.113-.222.832-.678 1.247-1.38 1.247zm4.233 0c-.678 0-1.134-.427-1.368-1.27-.117-.44-.188-1.14-.188-2.102 0-.902.07-1.603.211-2.101.234-.808.667-1.211 1.31-1.211.655 0 1.1.391 1.357 1.199.163.498.245 1.163.245 1.983 0 1.163-.117 2.03-.362 2.623-.234.582-.644.88-1.205.88zm-1.59-10.318H29.87l-.012 3.788a1.935 1.935 0 00-.725-.855 1.745 1.745 0 00-.96-.285c-.958 0-1.66.416-2.105 1.247-.362.677-.55 1.65-.55 2.92 0 1.39.165 2.434.492 3.135.41.89 1.111 1.342 2.129 1.342.397 0 .725-.095.982-.261.257-.179.515-.452.76-.808v3.633h1.123v-3.633c.234.344.48.617.748.796.27.19.585.273.971.273.948 0 1.638-.451 2.07-1.354.351-.736.527-1.78.527-3.122 0-1.259-.188-2.233-.573-2.945-.445-.82-1.147-1.235-2.094-1.235-.35 0-.678.095-.982.285-.305.19-.538.475-.726.855V26.12zM36.397.357h-2.035l-6.047 21.585h1.672L35.391 1.96l5.403 19.982h1.65L36.396.356zm34.186 0H58.887v1.722h4.994V21.94h1.696V2.078h4.082l.924-1.722zm27.94 0H88.5v21.585h9.567V20.22h-7.87v-8.881h6.783V9.617h-6.784v-7.54h7.427l.9-1.72zm18.187 10.2c-1.064 0-1.591-.013-2.339-.606-1.099-.88-1.591-2.292-1.591-3.681 0-1.58.597-3.206 1.989-4.037a3.947 3.947 0 012.023-.546h3.204v8.87h-3.286zm4.959-10.2h-5.017c-1.568 0-3.1.463-4.187 1.662-1.03 1.152-1.474 2.957-1.474 4.203 0 1.247.199 1.864.491 2.696.538 1.531 1.579 2.41 3.287 2.861l-5.053 10.151 1.895-.011 4.783-9.831h3.602v9.83h1.661V.358h.012zm6.491 20.042V10.97h3.099c1.392 0 2.503.391 3.345 1.199.831.807 1.252 1.994 1.252 3.573 0 3.1-1.345 4.655-4.059 4.655h-3.637zM137.002.356h-10.538v21.585h4.421c1.614 0 2.912-.19 3.883-.57a3.88 3.88 0 002.152-1.994c.456-.95.678-2.268.678-3.942 0-2.019-.538-3.514-1.637-4.524-1.064-.985-2.538-1.496-4.409-1.496h-.082l-3.31.024V2.078h7.93l.912-1.722zm11.052 0h-2.035l-6.046 21.585h1.66l5.404-19.982 5.403 19.982h1.661L148.054.356zm36.128 0h-1.953l-7.895 11.35V.357h-1.637v21.585h1.637v-7.753l2.515-3.17 5.672 10.911 1.895.012-6.433-12.502 6.199-9.083zM20.467 20.98c-.935 0-1.73-.38-2.397-1.14-.714-.807-1.264-1.863-1.638-3.17a17.959 17.959 0 01-.69-4.072 23.01 23.01 0 01.351-5.734c.293-1.52.784-2.802 1.474-3.86.69-1.044 1.579-1.602 2.678-1.673.07 0 .14-.012.21-.012.901 0 1.685.368 2.34 1.104.701.796 1.251 1.84 1.637 3.123a17.37 17.37 0 01.702 3.989c.07 1.2.058 2.434-.047 3.728a17.283 17.283 0 01-.655 3.657c-.327 1.14-.807 2.09-1.438 2.826-.632.736-1.392 1.14-2.316 1.187-.07.048-.14.048-.21.048zM20.491 0c-.117 0-.223 0-.34.012-1.333.083-2.467.689-3.426 1.816-.948 1.14-1.661 2.577-2.129 4.334a20.442 20.442 0 00-.667 6.411 18.91 18.91 0 00.62 3.835c.34 1.211.796 2.256 1.38 3.17.585.915 1.275 1.603 2.082 2.078a4.489 4.489 0 002.351.641c.105 0 .222 0 .328-.012 1.099-.059 2.058-.474 2.9-1.234.83-.76 1.509-1.757 2.035-2.98.526-1.211.889-2.577 1.1-4.06.222-1.485.28-2.97.198-4.441-.105-1.84-.444-3.491-1.017-4.987-.573-1.484-1.345-2.636-2.328-3.467C22.666.368 21.637 0 20.491 0zm30.186 20.98c-.936 0-1.731-.38-2.398-1.14-.713-.808-1.263-1.864-1.637-3.17a17.959 17.959 0 01-.69-4.073 23.01 23.01 0 01.35-5.734c.293-1.52.784-2.802 1.474-3.86.69-1.044 1.591-1.602 2.679-1.673.07 0 .14-.012.21-.012.9 0 1.684.368 2.34 1.104.713.796 1.25 1.84 1.637 3.123.374 1.282.608 2.612.701 3.989.07 1.2.059 2.434-.046 3.728a18.058 18.058 0 01-.655 3.657c-.328 1.14-.807 2.09-1.439 2.826-.631.736-1.403 1.14-2.316 1.187-.07.048-.14.048-.21.048zM50.689 0c-.117 0-.223 0-.34.012-1.333.083-2.467.689-3.426 1.816-.948 1.14-1.661 2.577-2.129 4.334a20.442 20.442 0 00-.667 6.411 18.91 18.91 0 00.62 3.835c.34 1.211.795 2.256 1.38 3.17.585.915 1.275 1.603 2.082 2.078a4.49 4.49 0 002.35.641c.106 0 .223 0 .328-.012 1.1-.059 2.059-.474 2.9-1.234.831-.76 1.51-1.757 2.036-2.98.526-1.211.889-2.577 1.1-4.06.221-1.485.292-2.97.198-4.441-.117-1.84-.444-3.491-1.017-4.987-.573-1.484-1.345-2.636-2.328-3.467A4.691 4.691 0 0050.69 0zm27.66 20.98c-.924 0-1.731-.38-2.398-1.14-.713-.808-1.263-1.864-1.637-3.17a18.63 18.63 0 01-.69-4.073c-.117-1.947-.024-3.811.35-5.734.304-1.52.784-2.802 1.486-3.86.69-1.044 1.579-1.602 2.678-1.673.07 0 .14-.012.21-.012.901 0 1.673.368 2.34 1.104.701.796 1.251 1.84 1.637 3.123a17.37 17.37 0 01.702 3.989c.07 1.2.058 2.434-.047 3.728a17.277 17.277 0 01-.655 3.657c-.327 1.14-.807 2.09-1.439 2.826-.631.736-1.403 1.14-2.327 1.187-.07.048-.14.048-.21.048zM78.372 0c-.105 0-.222 0-.34.012C76.7.095 75.566.7 74.607 1.828c-.947 1.14-1.66 2.577-2.129 4.334-.55 2.042-.795 4.298-.666 6.411.082 1.354.292 2.636.62 3.835.339 1.211.795 2.256 1.38 3.17.584.915 1.274 1.603 2.07 2.078a4.49 4.49 0 002.35.641c.106 0 .223 0 .328-.012 1.1-.059 2.07-.474 2.9-1.234.843-.76 1.51-1.757 2.036-2.98.514-1.211.888-2.577 1.11-4.06.211-1.485.281-2.97.2-4.441-.106-1.84-.445-3.491-1.018-4.987-.573-1.484-1.345-2.636-2.34-3.467A4.639 4.639 0 0078.373 0zm84.138 20.98c-.936 0-1.731-.38-2.398-1.14-.713-.808-1.263-1.864-1.637-3.17a18.655 18.655 0 01-.69-4.073c-.117-1.947-.024-3.811.351-5.734.292-1.52.783-2.802 1.473-3.86.69-1.044 1.591-1.602 2.69-1.673.07 0 .141-.012.211-.012.9 0 1.684.368 2.339 1.104.702.796 1.251 1.84 1.637 3.123a17.37 17.37 0 01.702 3.989c.07 1.2.059 2.434-.047 3.728a18.846 18.846 0 01-.655 3.657c-.339 1.14-.807 2.09-1.438 2.826-.62.736-1.404 1.14-2.316 1.187-.093.048-.164.048-.222.048zM162.522 0c-.117 0-.223 0-.34.012-1.333.083-2.467.689-3.426 1.816-.948 1.14-1.661 2.577-2.129 4.334a20.444 20.444 0 00-.667 6.411 18.91 18.91 0 00.62 3.835c.339 1.211.795 2.256 1.369 3.17.584.915 1.274 1.603 2.081 2.078a4.433 4.433 0 002.351.641c.105 0 .222 0 .328-.012 1.099-.059 2.058-.474 2.9-1.234.831-.76 1.521-1.757 2.035-2.98.527-1.211.889-2.577 1.111-4.06a21.72 21.72 0 00.199-4.441c-.105-1.84-.444-3.491-1.017-4.987-.573-1.484-1.345-2.636-2.34-3.467A4.659 4.659 0 00162.522 0zm29.975 20.98c-.935 0-1.731-.38-2.397-1.14-.714-.808-1.263-1.864-1.649-3.17a18.536 18.536 0 01-.69-4.073c-.117-1.947-.024-3.811.35-5.734.293-1.52.784-2.802 1.474-3.86.69-1.044 1.591-1.602 2.678-1.673.071 0 .141-.012.211-.012.9 0 1.684.368 2.339 1.104.702.796 1.251 1.84 1.637 3.123.375 1.282.62 2.612.702 3.989.07 1.2.059 2.434-.047 3.728-.105 1.294-.315 2.505-.655 3.657-.327 1.14-.807 2.09-1.438 2.826-.632.736-1.404 1.14-2.316 1.187-.058.048-.129.048-.199.048zM192.521 0c-.117 0-.223 0-.34.012-1.333.083-2.467.689-3.426 1.816-.948 1.14-1.661 2.577-2.129 4.334a20.444 20.444 0 00-.667 6.411 18.91 18.91 0 00.62 3.835c.339 1.211.796 2.256 1.38 3.17.585.915 1.275 1.603 2.082 2.078a4.463 4.463 0 002.351.641c.105 0 .222 0 .327-.012 1.1-.059 2.059-.474 2.901-1.234.83-.76 1.52-1.757 2.035-2.98.526-1.211.889-2.577 1.111-4.06a21.13 21.13 0 00.234-3.088v-.154c0-.404-.012-.808-.035-1.211-.105-1.84-.444-3.49-1.018-4.987-.573-1.484-1.345-2.636-2.339-3.467C194.696.368 193.667 0 192.521 0zM5.088 0a4 4 0 00-2.2.653c-.69.44-1.239 1.092-1.637 1.947-.374.808-.573 1.77-.608 2.885h1.462v-.142c0-.997.105-1.532.421-2.22a3.246 3.246 0 011.135-1.39c.362-.249.947-.45 1.485-.45h.012c1.251.011 2.175.7 2.737 1.697.467.855.456 1.876.456 2.683-.012.89-.117 1.924-1.111 3.028-.737.831-1.813 1.211-3.03 1.211h-.573v1.449h.655c1.193 0 2.562.19 3.427 1.116.982 1.056 1.006 2.113 1.088 3.81.082 1.58-.632 3.42-1.942 4.156-.538.31-.994.487-1.777.51h-.082c-.9 0-1.801-.498-2.433-1.258a4.968 4.968 0 01-.83-1.579 5.937 5.937 0 01-.281-1.769v-.166H0c.023 1.175.187 2.291.749 3.348.514.95 1.157 1.65 1.964 2.114a5.126 5.126 0 002.597.688c.912 0 1.824-.178 2.608-.7 1.813-1.2 2.491-2.874 2.585-5.094.082-1.638-.316-3.586-.948-4.464-.631-.879-1.497-1.46-2.596-1.745.327-.19.631-.392.924-.594.28-.214.526-.416.713-.617a4.05 4.05 0 00.948-1.496c.198-.57.292-1.259.292-2.102 0-1.187-.21-2.196-.62-3.028-.41-.83-.97-1.448-1.696-1.864C6.783.202 6.058 0 5.088 0z" fill="#FFFF01"/></svg>