<svg width="80" height="25" viewBox="0 0 80 25" fill="none" xmlns="http://www.w3.org/2000/svg"><path d="M35.354 14.78v-2.81c0-1.061-.7-1.776-1.826-1.785a1.859 1.859 0 00-.929.184c-.286.14-.53.353-.702.614a1.687 1.687 0 00-.655-.602 1.758 1.758 0 00-.881-.196 1.582 1.582 0 00-.77.16 1.52 1.52 0 00-.588.507v-.553h-1.01v4.488h1.02v-2.495c0-.778.448-1.192 1.136-1.192.689 0 1.01.423 1.01 1.183v2.498h1.02v-2.49c0-.777.466-1.191 1.137-1.191s1.02.423 1.02 1.183v2.498h1.018zm15.094-4.487h-1.65V8.93h-1.02v1.363h-.943v.89h.943v2.047c0 1.042.417 1.663 1.611 1.663a2.42 2.42 0 001.263-.349l-.291-.834a1.91 1.91 0 01-.894.253c-.504 0-.67-.3-.67-.75v-2.03h1.651v-.89zm8.617-.115a1.407 1.407 0 00-.706.167 1.35 1.35 0 00-.518.491v-.543h-1v4.487h1.01v-2.517c0-.74.33-1.155.99-1.155.216-.003.43.035.63.112l.313-.918a2.2 2.2 0 00-.72-.124zm-13.027.47a3.567 3.567 0 00-1.893-.47c-1.175 0-1.939.546-1.939 1.438 0 .731.562 1.183 1.602 1.324l.477.065c.553.075.816.216.816.469 0 .348-.37.545-1.058.545a2.54 2.54 0 01-1.552-.468l-.475.759a3.422 3.422 0 002.011.583c1.34 0 2.116-.611 2.116-1.466 0-.787-.611-1.202-1.621-1.342l-.456-.066c-.439-.056-.788-.14-.788-.44 0-.33.33-.527.885-.527.508.007 1.006.14 1.447.386l.428-.79zm27.063-.47a1.42 1.42 0 00-.706.167 1.354 1.354 0 00-.52.491v-.543h-.998v4.487h1.008v-2.517c0-.74.332-1.155.991-1.155.217-.003.432.035.633.112l.31-.918a2.175 2.175 0 00-.718-.124zm-13.016 2.358c0 1.362.981 2.357 2.476 2.357a2.485 2.485 0 001.672-.536l-.487-.788c-.35.258-.775.399-1.214.403-.807-.009-1.398-.573-1.398-1.435 0-.863.591-1.429 1.398-1.438.44.004.866.146 1.214.405l.487-.79a2.494 2.494 0 00-1.672-.536c-1.495 0-2.476.996-2.476 2.358zm9.46 0v-2.249h-1.009v.544a1.757 1.757 0 00-.651-.501 1.82 1.82 0 00-.817-.157c-1.301 0-2.327.986-2.327 2.358s1.02 2.356 2.327 2.356c.282.012.561-.042.817-.156.255-.115.479-.287.651-.502v.546h1.009v-2.239zm-3.759 0c0-.789.534-1.437 1.408-1.437.836 0 1.4.62 1.4 1.438 0 .817-.564 1.435-1.4 1.435-.874 0-1.408-.648-1.408-1.435zm-12.19-2.358c-1.358 0-2.312.958-2.312 2.358 0 1.4.991 2.357 2.38 2.357.693.023 1.37-.2 1.904-.63l-.496-.724c-.385.3-.864.466-1.358.47-.65 0-1.243-.29-1.389-1.098h3.448c0-.121.02-.243.02-.374-.01-1.4-.904-2.359-2.205-2.359h.008zm-.02.874c.652 0 1.069.395 1.175 1.089h-2.408c.106-.647.514-1.09 1.233-1.09zm25.343 1.485V8.489h-1.01v2.347a1.753 1.753 0 00-.65-.5 1.815 1.815 0 00-.816-.158c-1.303 0-2.327.986-2.327 2.358 0 1.373 1.02 2.357 2.327 2.357.28.011.56-.042.816-.157a1.75 1.75 0 00.65-.501v.545h1.01v-2.243zm-3.76 0c0-.79.535-1.438 1.41-1.438.834 0 1.398.62 1.398 1.438 0 .817-.564 1.435-1.398 1.435-.875 0-1.41-.648-1.41-1.435zm-34.113 0v-2.25h-1.01v.544a1.755 1.755 0 00-.65-.501 1.817 1.817 0 00-.816-.157c-1.301 0-2.327.986-2.327 2.358s1.02 2.356 2.327 2.356c.28.012.56-.042.816-.156a1.75 1.75 0 00.65-.502v.546h1.01v-2.239zm-3.758 0c0-.79.533-1.438 1.408-1.438.836 0 1.398.62 1.398 1.438 0 .817-.562 1.435-1.398 1.435-.875 0-1.408-.648-1.408-1.435zm-25.86 5.455c.055.046.113.09.17.134a7.147 7.147 0 01-3.535 1.118 7.18 7.18 0 01-3.626-.795 6.886 6.886 0 01-2.69-2.482 6.579 6.579 0 01-.99-3.464c0-1.22.342-2.418.99-3.465a6.885 6.885 0 012.69-2.482 7.18 7.18 0 013.626-.794 7.147 7.147 0 013.535 1.117c-.057.045-.115.088-.17.135a7.288 7.288 0 00-1.91 2.47A7.058 7.058 0 008.84 12.5c0 1.04.231 2.068.678 3.014a7.288 7.288 0 001.91 2.471v.008zm4.934-12.234a7.12 7.12 0 00-3.864 1.125c.056.045.114.088.168.135a7.291 7.291 0 011.91 2.47 7.05 7.05 0 010 6.029 7.291 7.291 0 01-1.91 2.47c-.054.048-.112.09-.168.136a7.13 7.13 0 003.024 1.076 7.207 7.207 0 003.202-.351 7.01 7.01 0 002.698-1.704 6.702 6.702 0 001.618-2.694 6.533 6.533 0 00.195-3.11 6.636 6.636 0 00-1.271-2.862 6.928 6.928 0 00-2.466-2.006 7.179 7.179 0 00-3.136-.722v.008zm-4.314 1.445a6.772 6.772 0 00-2.035 2.506 6.559 6.559 0 00-.628 2.798c0 .965.214 1.918.628 2.797a6.773 6.773 0 002.034 2.506c.09-.07.179-.139.264-.212a6.773 6.773 0 001.771-2.294 6.558 6.558 0 00.628-2.797c0-.966-.214-1.92-.628-2.798a6.772 6.772 0 00-2.035-2.506z" fill="#FFFF01"/></svg>