<svg width="40" height="25" viewBox="0 0 40 25" fill="none" xmlns="http://www.w3.org/2000/svg"><path fill-rule="evenodd" clip-rule="evenodd" d="M34.691 7.827h-7.245c.39 2.314 2.727 4.48 5.298 4.48h5.765c.078-.225.078-.523.078-.747 0-2.09-1.714-3.733-3.896-3.733zM28.07 12.68v5.598h3.506v-2.986h3.116c1.714 0 3.194-1.12 3.662-2.612H28.07zM15.607 7.827v10.451h3.116s.78 0 1.169-.746l2.727-5.226h.389v5.972h3.506V7.828h-3.116s-.78.074-1.17.746c-1.79 3.434-2.726 5.225-2.726 5.225h-.39V7.827h-3.505zM.805 18.278V7.828H4.31s1.013 0 1.559 1.492c1.402 3.957 1.558 4.48 1.558 4.48s.311-.971 1.558-4.48c.545-1.493 1.558-1.493 1.558-1.493h3.506v10.451h-3.506V12.68h-.39l-1.947 5.6H6.648L4.7 12.68h-.39v5.6H.805z" fill="#FFFF01"/></svg>