<svg width="40" height="25" viewBox="0 0 40 25" fill="none" xmlns="http://www.w3.org/2000/svg"><path fill-rule="evenodd" clip-rule="evenodd" d="M19.517 10.622c-.02 1.567 1.483 2.442 2.616 2.962 1.163.534 1.554.876 1.55 1.354-.01.73-.929 1.053-1.79 1.065-1.5.022-2.373-.382-3.067-.688l-.541 2.386c.696.302 1.985.566 3.322.577 3.139 0 5.192-1.46 5.203-3.723.012-2.873-4.217-3.032-4.188-4.316.01-.39.404-.805 1.268-.911.428-.053 1.608-.094 2.947.487l.525-2.308a8.44 8.44 0 00-2.796-.484c-2.954 0-5.032 1.48-5.049 3.599zm12.892-3.4c-.573 0-1.056.315-1.272.799l-4.483 10.088h3.136l.624-1.626h3.833l.362 1.626h2.764L34.96 7.222h-2.552zm.438 2.941l.905 4.088h-2.478l1.573-4.088zm-17.132-2.94l-2.472 10.886h2.989l2.47-10.887h-2.987zm-4.42 0l-3.11 7.409-1.259-6.3c-.148-.704-.73-1.11-1.378-1.11H.463l-.07.316c1.043.214 2.229.558 2.947.927.44.225.566.421.71.956l2.383 8.688h3.158l4.842-10.887h-3.139z" fill="#FFFF01"/></svg>