<svg width="20" height="20" viewBox="0 0 20 20" fill="none" xmlns="http://www.w3.org/2000/svg"><path d="M10 2.716c1.978 0 2.226.008 3.004.044 2.648.122 4.117 1.594 4.236 4.237.035.777.044 1.025.044 3.003 0 1.978-.009 2.226-.044 3.003-.12 2.648-1.594 4.116-4.237 4.237-.777.035-1.025.044-3.003.044-1.978 0-2.226-.009-3.004-.044-2.647-.121-4.115-1.591-4.236-4.237-.036-.777-.044-1.025-.044-3.003 0-1.978.008-2.226.044-3.004.122-2.647 1.592-4.115 4.237-4.236.777-.036 1.025-.044 3.003-.044zm0 2.91a4.375 4.375 0 100 8.749 4.375 4.375 0 000-8.75zm4.548-1.196a1.023 1.023 0 100 2.046 1.023 1.023 0 000-2.046zM10 12.84a2.84 2.84 0 110-5.68 2.84 2.84 0 010 5.68z" fill="#FFFF01"/></svg>