<svg width="20" height="20" viewBox="0 0 20 20" fill="none" xmlns="http://www.w3.org/2000/svg"><path fill-rule="evenodd" clip-rule="evenodd" d="M14.876 16.853c.226.16.516.2.775.102.26-.1.45-.32.507-.589.609-2.86 2.085-10.1 2.64-12.702a.547.547 0 00-.183-.53.56.56 0 00-.558-.099C15.12 4.122 6.077 7.515 2.38 8.883a.579.579 0 00-.38.56.58.58 0 00.416.535c1.657.496 3.833 1.186 3.833 1.186s1.017 3.071 1.548 4.633c.066.196.22.35.422.403a.607.607 0 00.568-.145l2.168-2.047s2.502 1.835 3.92 2.845zm-7.711-6.077l1.176 3.879.261-2.457 7.133-6.433a.194.194 0 00.023-.264.199.199 0 00-.263-.045l-8.33 5.32z" fill="#FFFF01"/></svg>