<svg version="1.0" xmlns="http://www.w3.org/2000/svg" width="400" height="400" viewBox="0 0 300 300"><path d="M135 .6c-1.4.3-6.8 1.1-12 2-35.1 5.7-70.2 27.3-92.5 57C9.4 87.5-.2 117.7.5 153c.8 40.4 15.6 75.1 44 103.3 16.9 16.8 36.4 28.8 59.1 36.2 16.1 5.3 30.2 7.3 48.9 7 8.8-.2 17.4-.6 19-.9 1.7-.4 6.6-1.4 11-2.2 49.2-9.8 93.1-49.3 109.6-98.6 9-27.2 10.1-58.8 2.8-86.3-12.3-47-48.5-86.4-94.4-102.8-7.5-2.6-16.1-4.9-26-6.7-6-1.2-34.8-2.1-39.5-1.4zM182.9 54c3.1 5.6 8.4 10.6 12.8 12.1 4.3 1.4 5.7 3.9 3.7 6.7-1.1 1.7-2 1.9-4.2 1.3-7.2-2.1-13.1-6.7-17.4-13.7-3.5-5.6-3.8-6.9-2.1-9.3 2.2-3.2 4.4-2.2 7.2 2.9zm-70.1 11.9c1.2 8-18.7 24.9-24.3 20.7-2.9-2.1-1.5-5.7 3-7.5 7.3-3 8.7-4.3 14.8-14.3 1.4-2.2 2.1-2.6 4-1.9 1.2.4 2.3 1.8 2.5 3zm-35.5 38.5c8.5.9 19.8 7.2 27 15.1 1.5 1.6 4.2 5.9 6 9.5 2.8 5.8 3.2 7.4 3.2 15 0 6.6-.5 9.5-2.1 13.1-2.6 5.6-8.6 12.4-12.8 14.6-10.9 5.8-26.5 4.5-36.8-2.9-7.7-5.6-10.9-11.5-11.4-20.7-1.1-22.5 19.7-33.7 36.5-19.5 11.8 9.9 8 27.5-6.2 29.1-8.6 1-15-5.6-12.5-13 1.6-4.6 2.7-5.7 5.8-5.7 3.2 0 5.4 3.6 3.8 6.4-.5.9-.7 2.4-.4 3.2.5 1.3 1 1.3 3.5-.2 6-3.5 4.4-10.6-3.2-14.3-6.5-3.2-10.1-2.8-14.1 1.5-6.6 7-6.1 17.8 1.3 24.2 4.5 3.9 10.8 6.2 16.9 6.3 9.6.1 15.8-3.4 19.8-11.2 4.8-9.6 3.7-19.2-3.4-27.8-5-6.2-6.7-7.6-14-11.2-5.2-2.7-7.3-3.2-13-3.1-7.9.1-16.7 2.8-21.9 6.8-7.5 5.7-12.5 17.4-12.5 29.1 0 15.2 13.9 30.8 32.4 36.4 9.2 2.7 22.4 2.2 30-1.3 12.1-5.6 17.2-11.8 20.8-25.1 2.1-7.7 2.6-14.8 1.5-20.9-.8-4.2 3.6-7.3 7.1-5 2.7 1.7 3.6 15 1.5 22.8-.5 2.1-1.2 5-1.5 6.4-2.6 13.8-13 25.6-27.7 31.1-9.9 3.8-31.6 3.1-41.4-1.2-13-5.8-25-18-29.8-30.3-6.6-17.1 1.5-41.2 17.3-51.1 5.8-3.7 20.7-7.8 24.5-6.9.6.2 3.2.5 5.8.8zm154.2 4.2c15.1 4 28.1 14.1 33.9 26.3 2.9 6.1 3.1 7.4 3.1 17.6 0 9.2-.4 12-2.4 17.3-5.5 14.5-21.8 26-37.6 26.6-15.3.6-31.5-7.6-39.2-19.7-7.6-12.1-5.9-30 3.8-39.5 15.5-15.3 45-11 51.9 7.4 4.6 12.3.9 26.3-8.3 31.1-2.1 1.1-5.5 1.6-9.8 1.6-16.5-.1-26.8-12.3-20.6-24.4 2.7-5.2 6-7.8 10.7-8.3 8.7-.9 14.2 5.5 11.9 13.9-.8 2.9-1.5 3.5-3.7 3.5-3.5 0-5.2-1.7-5.2-5.1 0-3.6-1.6-4.5-4.1-2.3-1.9 1.7-2.5 5.7-1.3 8.9 1.6 4.2 14.8 6.2 18.6 2.9 6.3-5.7 6.2-17.1-.3-23.4-8.7-8.3-25.4-7.5-34.1 1.7-1.5 1.5-3.2 4.1-3.8 5.8-1.6 4.3-1.5 14.4.3 18.6 4.4 10.6 21.4 19.7 34.3 18.4 6.1-.6 15.8-5.3 21.2-10.3 6.1-5.5 8.6-11.9 8.6-21.7 0-9.3-.5-12.9-2.9-17.8-4.2-9-18.8-18.7-30.7-20.5-20.8-3.2-39.5 5.3-47.8 21.5-2.2 4.3-2.5 6-2.5 16.3.1 10.2.4 12.3 2.8 18.1 3 7.4 2.8 9.4-1.1 10.4-4.3 1.1-7.6-4-9.8-15-.2-1.1-.7-6.1-1-11-1.4-20.2 7.4-35.5 25.1-44 12.6-6.1 28.2-8 40-4.9zm-61.1 94.7c3.5 2.7 1.4 25.1-4 42.2-2 6.3-6.9 13.8-10.5 15.9-9.3 5.5-19.8-2-26-18.5-2.4-6.1-6.5-25.2-7.2-32.7-.7-7.9-.6-7.9 24.7-8 15.1-.1 21.9.3 23 1.1z"/><path d="M135.9 210c-4.2.4-5.5.9-5.4 2 .2.8.6 3.5.9 6 2.8 19.3 11.5 38 17.7 38 5.9 0 12.4-15.7 14.5-34.7 1.3-12.3 1.7-11.3-4-11.4-2.8 0-8-.1-11.6-.2-3.6-.1-9 0-12.1.3z"/></svg>