<svg width="680" height="210" viewBox="0 0 680 210" fill="none" xmlns="http://www.w3.org/2000/svg"><g clip-path="url(#clip0)"><g clip-path="url(#clip1)" stroke="#5B2194" stroke-width="4" stroke-miterlimit="10"><path d="M54.94 113.84L23 57.64s-.67-5.32 6.65-10.31 38.59-21.95 38.59-21.95 4.32-3.32 11.64 9.62 27.93 46.58 27.93 46.58 4.33 5.32-7 12.64-35 19.62-35 19.62-2.89 4.32-10.87 0zm48.111-8.651l15.74 27.05-25.72 15.3-16.18-26.16 26.16-16.19zM87.91 124.76l6.16-3.22m8.311-.61l-3.54-6.21m-2.001 23.06l-3.55-5.98m15.34-.001l-3.59-5.44m-44.56-3.209s-2.64-5.1 5.33-9.31"/><path d="M104.621 91.06s5.32-3.51 12 7.79 27.94 47.22 27.94 47.22 8 8.87-5.54 16.63-30.78 18-30.78 18-10.24 7.54-17.11-4c-6.87-11.54-31-53.43-31-53.43M36.8 57.28l25.23 43.85"/><path d="M117.07 175.439c19.32 1 29.8 4.1 29.8 7.64 0 4.39-21.5 7.95-48 7.95s-48-3.56-48-7.95c0-3.62 19.2-6.68 39.21-7.64M68.69 160.62c-1-1-12.31-16-12.31-16m9.06 22.649l-28.64-11.08m108.371 11.751l17.29-7.32M147 174l20 1"/></g></g><g clip-path="url(#clip2)"><g clip-path="url(#clip3)" stroke="#5B2194" stroke-width="4" stroke-miterlimit="10"><path d="M224.94 113.84L193 57.64s-.67-5.32 6.65-10.31 38.59-21.95 38.59-21.95 4.32-3.32 11.64 9.62 27.93 46.58 27.93 46.58 4.33 5.32-7 12.64-35 19.62-35 19.62-2.89 4.32-10.87 0zm48.111-8.651l15.74 27.05-25.72 15.3-16.18-26.16 26.16-16.19zM257.91 124.76l6.16-3.22m8.311-.61l-3.54-6.21m-2.001 23.06l-3.55-5.98m15.34-.001l-3.59-5.44m-44.559-3.209s-2.64-5.1 5.33-9.31"/><path d="M274.621 91.06s5.32-3.51 12 7.79 27.94 47.22 27.94 47.22 8 8.87-5.54 16.63-30.78 18-30.78 18-10.24 7.54-17.11-4c-6.87-11.54-31-53.43-31-53.43m-23.33-65.99l25.23 43.85"/><path d="M287.07 175.439c19.32 1 29.8 4.1 29.8 7.64 0 4.39-21.5 7.95-48 7.95s-48-3.56-48-7.95c0-3.62 19.2-6.68 39.21-7.64M239 161c-.941-.926-11-14-11-14m7 20l-26-10m106 11l15-6m-13 12l17 1"/></g></g><g clip-path="url(#clip4)"><g clip-path="url(#clip5)" stroke="#5B2194" stroke-width="4" stroke-miterlimit="10"><path d="M394.94 113.84L363 57.64s-.67-5.32 6.65-10.31 38.59-21.95 38.59-21.95 4.32-3.32 11.64 9.62 27.93 46.58 27.93 46.58 4.33 5.32-7 12.64-35 19.62-35 19.62-2.89 4.32-10.87 0zm48.111-8.651l15.74 27.05-25.72 15.3-16.18-26.16 26.16-16.19zM427.91 124.76l6.16-3.22m8.311-.61l-3.54-6.21m-2.001 23.06l-3.55-5.98m15.34-.001l-3.59-5.44m-44.559-3.209s-2.64-5.1 5.33-9.31"/><path d="M444.621 91.06s5.32-3.51 12 7.79 27.94 47.22 27.94 47.22 8 8.87-5.54 16.63-30.78 18-30.78 18-10.24 7.54-17.11-4c-6.87-11.54-31-53.43-31-53.43m-23.33-65.99l25.23 43.85"/><path d="M457.07 175.439c19.32 1 29.8 4.1 29.8 7.64 0 4.39-21.5 7.95-48 7.95s-48-3.56-48-7.95c0-3.62 19.2-6.68 39.21-7.64M409 161c-.883-.915-9-12-9-12m5 18l-23-9m103 10l12-5m-10 11l14 1"/></g></g><defs><clipPath id="clip0"><path fill="#fff" d="M0 0h170v210H0z"/></clipPath><clipPath id="clip1"><path fill="#fff" transform="translate(21 23)" d="M0 0h154.95v170.03H0z"/></clipPath><clipPath id="clip2"><path fill="#fff" transform="translate(170)" d="M0 0h170v210H0z"/></clipPath><clipPath id="clip3"><path fill="#fff" transform="translate(191 23)" d="M0 0h154.95v170.03H0z"/></clipPath><clipPath id="clip4"><path fill="#fff" transform="translate(340)" d="M0 0h170v210H0z"/></clipPath><clipPath id="clip5"><path fill="#fff" transform="translate(361 23)" d="M0 0h154.95v170.03H0z"/></clipPath></defs></svg>