<svg width="680" height="210" viewBox="0 0 680 210" fill="none" xmlns="http://www.w3.org/2000/svg"><g clip-path="url(#clip0)" stroke="#5B2194" stroke-width="4" stroke-miterlimit="10"><g clip-path="url(#clip1)"><path d="M15.37 97.85l122.38 33.25-11.09 35.25-17.29 12.42-94-25.72-9.09-15.96 9.09-39.24z" stroke-linejoin="round"/><path d="M45.75 89.2l68.28 18.4m-14.81-3.99h17.47l18.62-1.77 22.39-5.32 4.88-8.43-1.11-11.08-5.76-8.42-15.3-12.42-25.5-14.85-33.03-8.21-33.25-1.1-28.6 4.87-8.28 11.54m.52 2.65l1.55 7.1 10.86 12.41 14.19 10.64L60.22 93.1m53.751-.36l47.56-5.52M133.21 79.7l26.81-3.11M10.1 49.44l26.81-3.11M45 117.58l-1.49 5.63m9.25-2.82l-1.49 5.63m8.8-2.81l-1.49 5.62m11.47-2.81l-1.49 5.62m10.5-4.12l-1.49 5.62m8.35-3.58l-1.49 5.62m9.24-3.54l-1.49 5.62m7.93-2.89l-1.04 3.94m-61.85-5.17l62.68 15.89m58.271-43.341l-6.2 16.46m-2.04-15.359l10.28 14.27m3.309-9.581l-16.9 4.88M48.63 90S22 83 15.5 96.5m98 11s25.5 8.5 24.5 23"/></g><path d="M157.98 8.21l-17.16 13.14M148.67 4l1.45 21.57m9.67-7.84L139 11.83M47.55 4l-6.19 16.46M39.31 5.09l10.28 14.27m3.31-9.57L36 14.66"/></g><g clip-path="url(#clip2)" stroke="#5B2194" stroke-width="4" stroke-miterlimit="10"><g clip-path="url(#clip3)"><path d="M185.37 97.85l122.38 33.25-11.09 35.25-17.29 12.42-94-25.72-9.09-15.96 9.09-39.24z" stroke-linejoin="round"/><path d="M215.75 89.2l68.28 18.4m-14.81-3.99h17.47l18.62-1.77 22.39-5.32 4.88-8.43-1.11-11.08-5.76-8.42-15.3-12.42-25.5-14.85-33.03-8.21-33.25-1.1-28.6 4.87-8.28 11.54m.521 2.65l1.55 7.1 10.86 12.41 14.19 10.64 21.35 11.88m53.75-.36l47.56-5.52M303.21 79.7l26.81-3.11M180.101 49.44l26.81-3.11m8.09 71.25l-1.49 5.63m9.25-2.82l-1.49 5.63m8.799-2.81l-1.49 5.62m11.471-2.81l-1.49 5.62m10.499-4.12l-1.49 5.62m8.351-3.58l-1.49 5.62m9.24-3.54l-1.49 5.62m7.929-2.89l-1.04 3.94m-61.849-5.17l62.68 15.89m61.27-42.341l-6.2 16.46m-2.041-15.359l10.28 14.27m3.31-9.581l-16.9 4.88M218.63 90S192 83 185.5 96.5m98 11s25.5 8.5 24.5 23"/></g><path d="M330.98 10.21l-17.16 13.14M321.67 6l1.45 21.57m9.67-7.84L312 13.83M220.549 4l-6.19 16.46m-2.048-15.37l10.28 14.27m3.309-9.57L209 14.66"/></g><g clip-path="url(#clip4)" stroke="#5B2194" stroke-width="4" stroke-miterlimit="10"><g clip-path="url(#clip5)"><path d="M355.37 97.85l122.38 33.25-11.09 35.25-17.29 12.42-94-25.72-9.09-15.96 9.09-39.24z" stroke-linejoin="round"/><path d="M385.75 89.2l68.28 18.4m-14.81-3.99h17.47l18.62-1.77 22.39-5.32 4.88-8.43-1.11-11.08-5.76-8.42-15.3-12.42-25.5-14.85-33.03-8.21-33.25-1.1-28.6 4.87-8.28 11.54m.521 2.65l1.55 7.1 10.86 12.41 14.19 10.64 21.35 11.88m53.75-.36l47.56-5.52M473.21 79.7l26.81-3.11M350.101 49.44l26.81-3.11m8.09 71.25l-1.49 5.63m9.25-2.82l-1.49 5.63m8.799-2.81l-1.49 5.62m11.471-2.81l-1.49 5.62m10.499-4.12l-1.49 5.62m8.351-3.58l-1.49 5.62m9.24-3.54l-1.49 5.62m7.929-2.89l-1.04 3.94m-61.849-5.17l62.68 15.89m64.27-40.341l-6.2 16.46M496 110l10.28 14.27m3.24-9.791l-16.9 4.88M388.63 90S362 83 355.5 96.5m98 11s25.5 8.5 24.5 23"/></g><path d="M503.98 11.21l-17.16 13.14M494.67 7l1.45 21.57m9.67-7.84L485 14.83M393.549 4l-6.19 16.46m-2.048-15.37l10.28 14.27m3.309-9.57L382 14.66"/></g><defs><clipPath id="clip0"><path fill="#fff" d="M0 0h170v210H0z"/></clipPath><clipPath id="clip1"><path fill="#fff" transform="translate(-47 30)" d="M0 0h240.02v150.95H0z"/></clipPath><clipPath id="clip2"><path fill="#fff" transform="translate(170)" d="M0 0h170v210H0z"/></clipPath><clipPath id="clip3"><path fill="#fff" transform="translate(123 30)" d="M0 0h240.02v150.95H0z"/></clipPath><clipPath id="clip4"><path fill="#fff" transform="translate(340)" d="M0 0h170v210H0z"/></clipPath><clipPath id="clip5"><path fill="#fff" transform="translate(293 30)" d="M0 0h240.02v150.95H0z"/></clipPath></defs></svg>