<svg width="680" height="210" viewBox="0 0 680 210" fill="none" xmlns="http://www.w3.org/2000/svg"><g clip-path="url(#clip0)"><g clip-path="url(#clip1)" stroke="#5B2194" stroke-width="4" stroke-miterlimit="10"><path d="M105.36 161.9s-10.86 19.95-18.62 24.38c-7.76 4.43-23.72 2-39-6.65-15.28-8.65-25.74-19.29-28.39-29.48-2.65-10.19 10.86-31.48 10.86-31.48M86.3 67.68l36.8 21.17-3.22 6.59-37.56-21.26 3.98-6.5z"/><path d="M118 29.21l-10.09-4.65-4.77 8.34-11.52 20.15 41.68 24.71 16.62-29.37L118 29.21z" stroke-linejoin="round"/><path d="M99.05 45.51l16.291-12.2-.55 18.85 17.07-9.98-1.55 19.62 15.29-11.53-1.32 8.1M91.62 53.05C89.4 56.59 83.72 65.43 88 68.2c4.28 2.77 35.061 20 35.061 20a11.456 11.456 0 007.37-5.52l2.83-4.88"/><path d="M113.12 147.26s12.42-26.6 14-35.47c1.58-8.87-6.65-15.29-6.65-15.29S83.19 75 79 73c-4.19-2-13.1.44-18 5.1-4.9 4.66-22 26.6-22 26.6-4.66-2.83-9.81 11.8-9.81 11.8l77.65 45.23s9.58-8.48 6.2-14.47" stroke-linejoin="round"/><path d="M114.4 148.76L39.08 104.7m35.55-47.57a3.65 3.65 0 100-7.3 3.65 3.65 0 000 7.3zm-19.07-2.32a5.18 5.18 0 100-10.36 5.18 5.18 0 000 10.36zm-25.54-2.2a6.48 6.48 0 100-12.96 6.48 6.48 0 000 12.96zm133.72-14.74a3.65 3.65 0 100-7.3 3.65 3.65 0 000 7.3zm-.79 28.35a2.86 2.86 0 100-5.72 2.86 2.86 0 000 5.72zM81.011 44.39a3.65 3.65 0 100-7.3 3.65 3.65 0 000 7.3zM68.2 31.28a5.18 5.18 0 100-10.36 5.18 5.18 0 000 10.36zM52.38 19.76a8.38 8.38 0 100-16.76 8.38 8.38 0 000 16.76z"/></g></g><g clip-path="url(#clip2)"><g clip-path="url(#clip3)" stroke="#5B2194" stroke-width="4" stroke-miterlimit="10"><path d="M275.36 161.9s-10.86 19.95-18.62 24.38c-7.76 4.43-23.72 2-39-6.65-15.28-8.65-25.74-19.29-28.39-29.48-2.65-10.19 10.86-31.48 10.86-31.48m56.09-50.99l36.8 21.17-3.22 6.59-37.56-21.26 3.98-6.5z"/><path d="M288 29.21l-10.09-4.65-4.77 8.34-11.52 20.15 41.68 24.71 16.62-29.37L288 29.21z" stroke-linejoin="round"/><path d="M269.051 45.51l16.29-12.2-.55 18.85 17.07-9.98-1.55 19.62 15.29-11.53-1.32 8.1m-52.66-5.32c-2.22 3.54-7.9 12.38-3.62 15.15 4.28 2.77 35.06 20 35.06 20a11.456 11.456 0 007.37-5.52l2.83-4.88"/><path d="M283.12 147.26s12.42-26.6 14-35.47c1.58-8.87-6.65-15.29-6.65-15.29S253.19 75 249 73c-4.19-2-13.1.44-18 5.1-4.9 4.66-22 26.6-22 26.6-4.66-2.83-9.81 11.8-9.81 11.8l77.65 45.23s9.58-8.48 6.2-14.47" stroke-linejoin="round"/><path d="M284.4 148.76l-75.32-44.06m35.55-47.57a3.65 3.65 0 100-7.3 3.65 3.65 0 000 7.3zM225.5 53a3.5 3.5 0 100-7 3.5 3.5 0 000 7zM200 51a5 5 0 100-10 5 5 0 000 10zm133.74-13.13a3.65 3.65 0 100-7.3 3.65 3.65 0 000 7.3zm-.79 28.35a2.86 2.86 0 100-5.72 2.86 2.86 0 000 5.72zm-81.939-21.83a3.65 3.65 0 100-7.3 3.65 3.65 0 000 7.3zM238 30a4 4 0 100-8 4 4 0 000 8zm-15.5-12a6.5 6.5 0 100-13 6.5 6.5 0 000 13z"/></g></g><g clip-path="url(#clip4)"><g clip-path="url(#clip5)" stroke="#5B2194" stroke-width="4" stroke-miterlimit="10"><path d="M445.36 161.9s-10.86 19.95-18.62 24.38c-7.76 4.43-23.72 2-39-6.65-15.28-8.65-25.74-19.29-28.39-29.48-2.65-10.19 10.86-31.48 10.86-31.48m56.09-50.99l36.8 21.17-3.22 6.59-37.56-21.26 3.98-6.5z"/><path d="M458 29.21l-10.09-4.65-4.77 8.34-11.52 20.15 41.68 24.71 16.62-29.37L458 29.21z" stroke-linejoin="round"/><path d="M439.051 45.51l16.29-12.2-.55 18.85 17.07-9.98-1.55 19.62 15.29-11.53-1.32 8.1m-52.66-5.32c-2.22 3.54-7.9 12.38-3.62 15.15 4.28 2.77 35.06 20 35.06 20a11.456 11.456 0 007.37-5.52l2.83-4.88"/><path d="M453.12 147.26s12.42-26.6 14-35.47c1.58-8.87-6.65-15.29-6.65-15.29S423.19 75 419 73c-4.19-2-13.1.44-18 5.1-4.9 4.66-22 26.6-22 26.6-4.66-2.83-9.81 11.8-9.81 11.8l77.65 45.23s9.58-8.48 6.2-14.47" stroke-linejoin="round"/><path d="M454.4 148.76l-75.32-44.06M414.5 56a2.5 2.5 0 100-5 2.5 2.5 0 000 5zm-19-4a2.5 2.5 0 100-5 2.5 2.5 0 000 5zM370 49a3 3 0 100-6 3 3 0 000 6zm133.74-11.13a3.65 3.65 0 100-7.3 3.65 3.65 0 000 7.3zm-.79 28.35a2.86 2.86 0 100-5.72 2.86 2.86 0 000 5.72zM421 43a2 2 0 100-4 2 2 0 000 4zm-13-15a2 2 0 100-4 2 2 0 000 4zm-15.5-11a5.5 5.5 0 100-11 5.5 5.5 0 000 11z"/></g></g><defs><clipPath id="clip0"><path fill="#fff" d="M0 0h170v210H0z"/></clipPath><clipPath id="clip1"><path fill="#fff" transform="translate(17 -16)" d="M0 0h199.73v206.45H0z"/></clipPath><clipPath id="clip2"><path fill="#fff" transform="translate(170)" d="M0 0h170v210H0z"/></clipPath><clipPath id="clip3"><path fill="#fff" transform="translate(187 -16)" d="M0 0h199.73v206.45H0z"/></clipPath><clipPath id="clip4"><path fill="#fff" transform="translate(340)" d="M0 0h170v210H0z"/></clipPath><clipPath id="clip5"><path fill="#fff" transform="translate(357 -16)" d="M0 0h199.73v206.45H0z"/></clipPath></defs></svg>