<svg width="680" height="210" viewBox="0 0 680 210" fill="none" xmlns="http://www.w3.org/2000/svg"><g clip-path="url(#clip0)"><g clip-path="url(#clip1)" stroke="#5B2194" stroke-width="4" stroke-miterlimit="10"><path d="M49.65 22.87S23.27 21.1 24.38 47c1.11 25.9 25.27 33.29 25.27 33.29l26.6-14s5.1-33.22-26.6-43.42z"/><path d="M84.58 80.29L58.3 96s-15.74 25.5 0 55.87c15.74 30.37 48.33 35 48.33 35L139 168.75s27.3-73.6-54.42-88.46z" stroke-linejoin="round"/><path d="M58.74 87.94l.67-5.21 5.09 1.89 1.45-5.77 5.1 2 1.88-5.88 4.32 2.55M57.3 112.33s23-4.88 40-23.17M68 165.76s12.41 15.18 33.91 3.43c21.5-11.75 29-17.51 29-17.51s15.4-6.25 8-33.94M42.28 89.16S26.5 80 6 84.5m32.28 11.42a52.897 52.897 0 00-29.92 4.821m29.92 2.729s-9.31-1.89-15 4.76M106.8 75s9.2-16.5 5.2-39.5m-11.71 35.08a52.92 52.92 0 00-3-30.16m-4.54 29.71s2.46-9.18-3.84-15.23"/></g></g><g clip-path="url(#clip2)"><g clip-path="url(#clip3)" stroke="#5B2194" stroke-width="4" stroke-miterlimit="10"><path d="M389.65 22.87S363.27 21.1 364.38 47c1.11 25.9 25.27 33.29 25.27 33.29l26.6-14s5.1-33.22-26.6-43.42z"/><path d="M424.58 80.29L398.3 96s-15.74 25.5 0 55.87c15.74 30.37 48.33 35 48.33 35L479 168.75s27.3-73.6-54.42-88.46z" stroke-linejoin="round"/><path d="M398.74 87.94l.67-5.21 5.09 1.89 1.45-5.77 5.1 2 1.88-5.88 4.32 2.55m-19.95 34.81s23-4.88 40-23.17m-29.3 76.6s12.41 15.18 33.91 3.43c21.5-11.75 29-17.51 29-17.51s15.4-6.25 8-33.94m-96.63-28.58S369 81.5 351 83.5m27.28 12.42c-10.23-1.345-17.28 0-24.78 2.58m24.78 4.97S370.5 102.5 366 106m80.8-31s7.7-13 5.7-34.5M440 70.16c1.962-10.13 1-17.16-1.5-25.66m-5.75 25.63S434.5 63.5 431 57.5"/></g></g><g clip-path="url(#clip4)"><g clip-path="url(#clip5)" stroke="#5B2194" stroke-width="4" stroke-miterlimit="10"><path d="M219.65 22.87S193.27 21.1 194.38 47c1.11 25.9 25.27 33.29 25.27 33.29l26.6-14s5.1-33.22-26.6-43.42z"/><path d="M254.58 80.29L228.3 96s-15.74 25.5 0 55.87c15.74 30.37 48.33 35 48.33 35L309 168.75s27.3-73.6-54.42-88.46z" stroke-linejoin="round"/><path d="M228.74 87.94l.67-5.21 5.09 1.89 1.45-5.77 5.1 2 1.88-5.88 4.32 2.55m-19.95 34.81s23-4.88 40-23.17m-29.3 76.6s12.41 15.18 33.91 3.43c21.5-11.75 29-17.51 29-17.51s15.4-6.25 8-33.94M212 89s-14.788-9.31-34-4.736m30 11.164c-9.232-1.276-18.617.313-27 4.572m27 3.198s-8.069-1.509-13 3.802m81.8-32s8.2-15 5.7-37.5m-12.21 33.08c1.962-10.13 1.629-18.534-2.29-28.08m-5.25 27.63S265 62 260 56"/></g></g><defs><clipPath id="clip0"><path fill="#fff" d="M0 0h170v210H0z"/></clipPath><clipPath id="clip1"><path fill="#fff" transform="translate(-19 14)" d="M0 0h164.37v175H0z"/></clipPath><clipPath id="clip2"><path fill="#fff" transform="translate(340)" d="M0 0h170v210H0z"/></clipPath><clipPath id="clip3"><path fill="#fff" transform="translate(321 14)" d="M0 0h164.37v175H0z"/></clipPath><clipPath id="clip4"><path fill="#fff" transform="translate(170)" d="M0 0h170v210H0z"/></clipPath><clipPath id="clip5"><path fill="#fff" transform="translate(151 14)" d="M0 0h164.37v175H0z"/></clipPath></defs></svg>