<svg width="680" height="210" viewBox="0 0 680 210" fill="none" xmlns="http://www.w3.org/2000/svg"><g clip-path="url(#clip0)"><g clip-path="url(#clip1)" stroke="#5B2194" stroke-width="4" stroke-miterlimit="10"><path d="M47.2 65.903L82.834 194.92s7.297 1.832 24.568-3.858c17.27-5.689 24.145-9.293 24.145-9.293L95.188 52.905s-16.147-1.02-45.223 11.738l-2.766 1.26z" stroke-linejoin="round"/><path d="M42.575 41.574l-4.479-15.676s.35-3.31 6.474-5.17c6.124-1.86 29.684-8.238 29.684-8.238s5.145-1.764 7.198 2.951c2.054 4.715 10.984 37.481 10.984 37.481s-16.45 2.25-23.586 4.68c-7.135 2.43-18.839 7.06-18.839 7.06l-7.436-23.089z"/><path d="M59.213 29.105s-6.086.543-3.552 7.558c2.533 7.015 6.01 14.223 9.287 12.26m39.67 37.312S88.819 84.96 56.311 98.992"/><path d="M65.657 38.254a3.08 3.08 0 10-3.164-5.285 3.08 3.08 0 003.164 5.285z"/><path d="M67.592 101.911l21.94 76.785s10.195 3.499 16.467 1.304c10-3.5 11.417-8.675 11.417-8.675L95.999 94.5" stroke-linejoin="round"/><path d="M28.017 38.4L7.529 35.817m20.532 10.057L7.03 47.321m22.915 5.934L8.03 61.707m25.517-1.894L21.529 69.819"/></g></g><g clip-path="url(#clip2)"><g clip-path="url(#clip3)" stroke="#5B2194" stroke-width="4" stroke-miterlimit="10"><path d="M217.199 65.903l35.636 129.017s7.298 1.832 24.568-3.858c17.27-5.689 24.145-9.293 24.145-9.293l-36.36-128.864s-16.147-1.02-45.223 11.738l-2.766 1.26z" stroke-linejoin="round"/><path d="M212.575 41.572l-4.479-15.675s.35-3.31 6.474-5.17c6.124-1.86 29.684-8.238 29.684-8.238s5.145-1.764 7.198 2.951c2.054 4.715 10.984 37.481 10.984 37.481s-16.451 2.25-23.586 4.68c-7.135 2.43-18.839 7.06-18.839 7.06l-7.436-23.089z"/><path d="M229.213 29.105s-6.085.543-3.552 7.558 6.009 14.223 9.287 12.26m39.67 37.311s-15.799-1.275-48.307 12.757"/><path d="M235.658 38.254a3.08 3.08 0 10-3.162-5.286 3.08 3.08 0 003.162 5.286z"/><path d="M237.593 101.911l21.939 76.785S269.728 182.195 276 180c10-3.5 11.417-8.675 11.417-8.675L266 94.5" stroke-linejoin="round"/><path d="M198.017 38.4L180 36m18.062 9.874L180 47m19.946 6.255L180 61m23.547-1.186L194 68"/></g></g><g clip-path="url(#clip4)"><g clip-path="url(#clip5)" stroke="#5B2194" stroke-width="4" stroke-miterlimit="10"><path d="M387.199 65.903l35.636 129.018s7.298 1.832 24.568-3.858c17.27-5.689 24.145-9.293 24.145-9.293l-36.36-128.864s-16.147-1.02-45.223 11.738l-2.766 1.26z" stroke-linejoin="round"/><path d="M382.575 41.574l-4.479-15.676s.35-3.31 6.474-5.17c6.124-1.86 29.684-8.238 29.684-8.238s5.145-1.764 7.198 2.951c2.054 4.715 10.984 37.481 10.984 37.481s-16.451 2.25-23.586 4.68c-7.135 2.43-18.839 7.06-18.839 7.06l-7.436-23.089z"/><path d="M399.213 29.106s-6.085.543-3.552 7.558 6.009 14.223 9.287 12.26m39.67 37.311s-15.799-1.275-48.307 12.757"/><path d="M405.657 38.255a3.08 3.08 0 10-3.162-5.286 3.08 3.08 0 003.162 5.286z"/><path d="M407.592 101.912l21.94 76.785s10.195 3.499 16.467 1.303c10-3.5 11.417-8.674 11.417-8.674l-21.417-76.825" stroke-linejoin="round"/><path d="M368.017 38.4L352.5 36.5m15.561 9.375L352.499 47m17.446 6.256L353.499 59.5m20.048.314L365.5 66.5"/></g></g><defs><clipPath id="clip0"><path fill="#fff" transform="matrix(-1 0 0 1 170 0)" d="M0 0h170v210H0z"/></clipPath><clipPath id="clip1"><path fill="#fff" transform="rotate(-30.91 88.637 117.89)" d="M0 0h137.16v196.84H0z"/></clipPath><clipPath id="clip2"><path fill="#fff" transform="matrix(-1 0 0 1 340 0)" d="M0 0h170v210H0z"/></clipPath><clipPath id="clip3"><path fill="#fff" transform="rotate(-30.91 173.637 -189.547)" d="M0 0h137.16v196.84H0z"/></clipPath><clipPath id="clip4"><path fill="#fff" transform="matrix(-1 0 0 1 510 0)" d="M0 0h170v210H0z"/></clipPath><clipPath id="clip5"><path fill="#fff" transform="rotate(-30.91 258.637 -496.986)" d="M0 0h137.16v196.84H0z"/></clipPath></defs></svg>