<svg width="680" height="210" viewBox="0 0 680 210" fill="none" xmlns="http://www.w3.org/2000/svg"><g clip-path="url(#clip0)" stroke="#5B2194" stroke-width="4"><path d="M14.68 48.26A238.004 238.004 0 0047.94 33c15.63-9 32.25-22.32 32.25-22.32s9 9 8.65 15c-.35 6 23.94 60.82 23.94 60.82l20.95 43.56s3.66 4.33 2 7.65c-1.66 3.32-31.93 19.29-35.58 20.95-3.65 1.66-4.33 7.65-18-13s-67.47-97.4-67.47-97.4z" stroke-miterlimit="10" stroke-linejoin="round"/><path d="M25 55.91s7.65 1.33 33.92-15l26.26-16.26m12.61 135.54l20.64 37.05s3.53-1.52 14.84-7.84 23.07-12.4 23.07-12.4-5.26-8.11-12.3-20.52c-10.87-19.17-8.31-18.72-8.31-18.72m-76-38.29s21.94-22.28 42.889-23.94M40.51 60.55l4.91-.34m2.07-2.86L52.4 57m2.42-3.63l4.91-.35m1.85-3.38l4.91-.35M68 45.77l4.91-.35m1.63-3.43l4.91-.35" stroke-miterlimit="10" stroke-linejoin="round"/><path d="M60 153.5L52.5 171m-2.5 5.5l-2 4m2-33.5l-18.5 18m-4 4l-4 4M43 138l-15 6m-4.5 2l-5 2m92.394-95.386l4.502-18.5m1.556-5.838L118.263 24m3.569 32.369L137.1 35.557m3.283-4.607l3.283-4.606m-13.442 38.743l13.801-8.399m4.107-2.716l4.601-2.8"/></g><g clip-path="url(#clip1)" stroke="#5B2194" stroke-width="4"><path d="M184.68 48.26A238.02 238.02 0 00217.94 33c15.63-9 32.25-22.32 32.25-22.32s9 9 8.65 15c-.35 6 23.94 60.82 23.94 60.82l20.95 43.56s3.66 4.33 2 7.65c-1.66 3.32-31.93 19.29-35.58 20.95-3.65 1.66-4.33 7.65-18-13s-67.47-97.4-67.47-97.4z" stroke-miterlimit="10" stroke-linejoin="round"/><path d="M195 55.91s7.65 1.33 33.92-15l26.26-16.26m12.61 135.54l20.64 37.05s3.53-1.52 14.84-7.84 23.07-12.4 23.07-12.4-5.26-8.11-12.3-20.52c-10.87-19.17-8.31-18.72-8.31-18.72m-76.001-38.29s21.94-22.28 42.89-23.94M210.51 60.55l4.91-.34m2.069-2.86l4.91-.35m2.42-3.63l4.91-.35m1.851-3.38l4.91-.35m1.51-3.52l4.91-.35m1.63-3.43l4.91-.35" stroke-miterlimit="10" stroke-linejoin="round"/><path d="M230 153l-6 15m-4 8.5l-2 4m2-33.5l-16 16m-6.5 6l-4 4m19.5-35l-13 5m-6.5 3l-5 2m92.394-95.386L285 36m1.952-7.724L288.263 24m3.569 32.369L306 36.999m4.383-6.049l3.283-4.606m-13.441 38.743L312 58m6.132-4.028l4.601-2.8"/></g><g clip-path="url(#clip2)" stroke="#5B2194" stroke-width="4"><path d="M354.68 48.26A238.02 238.02 0 00387.94 33c15.63-9 32.25-22.32 32.25-22.32s9 9 8.65 15c-.35 6 23.94 60.82 23.94 60.82l20.95 43.56s3.66 4.33 2 7.65c-1.66 3.32-31.93 19.29-35.58 20.95-3.65 1.66-4.33 7.65-18-13s-67.47-97.4-67.47-97.4z" stroke-miterlimit="10" stroke-linejoin="round"/><path d="M365 55.91s7.65 1.33 33.92-15l26.26-16.26m12.61 135.54l20.64 37.05s3.53-1.52 14.84-7.84 23.07-12.4 23.07-12.4-5.26-8.11-12.3-20.52c-10.87-19.17-8.31-18.72-8.31-18.72m-76.001-38.29s21.94-22.28 42.89-23.94M380.51 60.55l4.91-.34m2.069-2.86l4.91-.35m2.42-3.63l4.91-.35m1.851-3.38l4.91-.35m1.51-3.52l4.91-.35m1.63-3.43l4.91-.35" stroke-miterlimit="10" stroke-linejoin="round"/><path d="M400 153l-5 13m-5 10.5l-2 4m2-33.5l-14 14m-8.5 8l-4 4m19.5-35l-10 4m-9.5 4l-5 2m92.395-95.386L454 39m2.952-10.724L458.263 24m3.569 32.369L474 39.999m6.383-9.049l3.283-4.606m-13.441 38.743L480 59m8.132-5.028l4.601-2.8"/></g><defs><clipPath id="clip0"><path fill="#fff" transform="translate(2 8)" d="M0 0h157.22v191.79H0z"/></clipPath><clipPath id="clip1"><path fill="#fff" transform="translate(172 8)" d="M0 0h157.22v191.79H0z"/></clipPath><clipPath id="clip2"><path fill="#fff" transform="translate(342 8)" d="M0 0h157.22v191.79H0z"/></clipPath></defs></svg>