<svg width="680" height="210" viewBox="0 0 680 210" fill="none" xmlns="http://www.w3.org/2000/svg"><g clip-path="url(#clip0)" stroke="#5B2194" stroke-width="4" stroke-miterlimit="10"><path d="M12.81 48.58a431.887 431.887 0 0038.9-21.61C74.33 13 80 11 80 11l2.66 6.66s10 37.91 19.291 53.53c9.29 15.62 41.9 82.47 41.9 82.47l-40.57 23.95s-67.2-106.75-75.18-111.4c-7.98-4.65-15.29-17.63-15.29-17.63z" stroke-linejoin="round"/><path d="M84.79 133.71s21.79-17.08 34.43-18M24.38 51.59l-4.32-6.63m9.64 3.31l-3.58-6.51m10.23 3.2l-4.5-6.33m10.82 3.13l-4.72-6.58m8.71 3.29l-2.81-6.75m9.79 3.38l-4.51-6.55m10.5 1.42l-4.33-5.2m9.98 2.6l-3.18-6.7m10.16 3.35l-5.63-5.99m10.33 3.31l-4.23-6.63m30.53 162.9l9.74 16.64s3.49 7 12.64 2.49 25.77-14.13 25.77-14.13 6.15-5.32 2-12.8-9.57-16.15-9.57-16.15m-92.223-32.677a38.702 38.702 0 00-25.158-15.995c-17.075-2.851-21.287 8.987-20.973 11.71.314 2.723 13.049 5.376 13.049 5.376s-8 15.099 1.384 16.604c9.385 1.505 11.953.203 11.953.203s-2.912 16.765 6.497 16.599c9.409-.166 13.248-34.497 13.248-34.497zm59.125-52.075s-1.52-32.635 10.218-31.436c11.737 1.199 8.358 15.36 8.358 15.36s12.276-7.234 15.401-.592c3.126 6.643-3.153 12.802-3.153 12.802s17.716 4.138 12.378 13.858c-5.339 9.72-43.202-9.992-43.202-9.992zM130.79 31.72s-8-5.56-15.63 0"/></g><path d="M69.72 74.69c6.82-3.25 12.86 10 12.86 10l4.21-2S81.65 68.05 74 70.05c-3.34.87-4.62 3.9-4.62 7.66a24.69 24.69 0 00.91 6.29A36 36 0 0074 92.83c4.66 7.78 11.31 20.78 19 16.79 7.69-3.99 3.4-15 3.4-15l-5.13 2.83s.2 17.09-8.87 8.15" stroke="#5B2194" stroke-width="4" stroke-miterlimit="10"/><g clip-path="url(#clip1)" stroke="#5B2194" stroke-width="4" stroke-miterlimit="10"><path d="M182.811 48.58a431.983 431.983 0 0038.9-21.61C244.331 13 250.001 11 250.001 11l2.66 6.66s10 37.91 19.29 53.53c9.29 15.62 41.9 82.47 41.9 82.47l-40.57 23.95s-67.2-106.75-75.18-111.4c-7.98-4.65-15.29-17.63-15.29-17.63z" stroke-linejoin="round"/><path d="M254.79 133.71s21.79-17.08 34.43-18m-94.839-64.12l-4.32-6.63m9.639 3.31l-3.58-6.51m10.231 3.2l-4.5-6.33m10.819 3.13l-4.72-6.58m8.711 3.29l-2.81-6.75m9.789 3.38l-4.51-6.55m10.501 1.42l-4.33-5.2m9.98 2.6l-3.18-6.7m10.159 3.35l-5.63-5.99m10.33 3.31l-4.23-6.63m30.531 162.9l9.74 16.64s3.49 7 12.64 2.49 25.77-14.13 25.77-14.13 6.15-5.32 2-12.8-9.57-16.15-9.57-16.15m-92.698-32a38.697 38.697 0 00-24.019-17.661c-16.843-4-21.846 7.526-21.717 10.264.129 2.738 12.655 6.247 12.655 6.247s-9.003 14.523.258 16.659c9.261 2.137 11.911 1.012 11.911 1.012s-4.039 16.529 5.359 17c9.399.471 15.553-33.521 15.553-33.521zm59.48-51.967s-4.401-32.372 7.397-32.216c11.797.156 9.684 14.56 9.684 14.56s11.588-8.291 15.289-1.951c3.7 6.34-2.009 13.03-2.009 13.03s18.013 2.555 13.555 12.709c-4.459 10.154-43.916-6.132-43.916-6.132zM297.79 31.72s-8-5.56-15.63 0"/></g><path d="M239.72 74.69c6.82-3.25 12.86 10 12.86 10l4.21-2S251.65 68.05 244 70.05c-3.34.87-4.62 3.9-4.62 7.66a24.69 24.69 0 00.91 6.29 35.981 35.981 0 003.71 8.83c4.66 7.78 11.31 20.78 19 16.79 7.69-3.99 3.4-15 3.4-15l-5.13 2.83s.2 17.09-8.87 8.15" stroke="#5B2194" stroke-width="4" stroke-miterlimit="10"/><g clip-path="url(#clip2)" stroke="#5B2194" stroke-width="4" stroke-miterlimit="10"><path d="M352.811 48.58a431.983 431.983 0 0038.9-21.61C414.331 13 420.001 11 420.001 11l2.66 6.66s10 37.91 19.29 53.53c9.29 15.62 41.9 82.47 41.9 82.47l-40.57 23.95s-67.2-106.75-75.18-111.4c-7.98-4.65-15.29-17.63-15.29-17.63z" stroke-linejoin="round"/><path d="M424.79 133.71s21.79-17.08 34.43-18m-94.839-64.12l-4.32-6.63m9.639 3.31l-3.58-6.51m10.231 3.2l-4.5-6.33m10.819 3.13l-4.72-6.58m8.711 3.29l-2.81-6.75m9.79 3.38l-4.51-6.55m10.5 1.42l-4.33-5.2m9.98 2.6l-3.18-6.7m10.16 3.35l-5.63-5.99m10.329 3.31l-4.23-6.63m30.531 162.9l9.74 16.64s3.49 7 12.64 2.49 25.77-14.13 25.77-14.13 6.15-5.32 2-12.8-9.57-16.15-9.57-16.15m-92.345-32.567a38.71 38.71 0 00-22.976-18.997c-16.589-4.95-22.239 6.273-22.266 9.013-.027 2.741 12.28 6.956 12.28 6.956s-9.815 13.988-.69 16.647c9.125 2.659 11.835 1.687 11.835 1.687s-4.972 16.273 4.384 17.278c9.357 1.004 17.433-32.584 17.433-32.584zm58.492-52.759s-5.46-32.21 6.336-32.442c11.796-.231 10.157 14.235 10.157 14.235s11.309-8.667 15.216-2.452c3.907 6.216-1.58 13.09-1.58 13.09s18.087 1.962 13.964 12.257c-4.122 10.294-44.093-4.688-44.093-4.688zM464.79 30.72s-8-5.56-15.63 0"/></g><path d="M409.72 74.69c6.82-3.25 12.86 10 12.86 10l4.21-2S421.65 68.05 414 70.05c-3.34.87-4.62 3.9-4.62 7.66a24.69 24.69 0 00.91 6.29 35.981 35.981 0 003.71 8.83c4.66 7.78 11.31 20.78 19 16.79 7.69-3.99 3.4-15 3.4-15l-5.13 2.83s.2 17.09-8.87 8.15" stroke="#5B2194" stroke-width="4" stroke-miterlimit="10"/><defs><clipPath id="clip0"><path fill="#fff" transform="translate(3 9)" d="M0 0h155.38v191.77H0z"/></clipPath><clipPath id="clip1"><path fill="#fff" transform="translate(173 9)" d="M0 0h155.38v191.77H0z"/></clipPath><clipPath id="clip2"><path fill="#fff" transform="translate(343 9)" d="M0 0h155.38v191.77H0z"/></clipPath></defs></svg>