<svg width="680" height="210" viewBox="0 0 680 210" fill="none" xmlns="http://www.w3.org/2000/svg"><g clip-path="url(#clip0)"><g clip-path="url(#clip1)" stroke="#5B2194" stroke-width="4"><path d="M94.69 73.18s13-4.66 19.95 8c6.95 12.66 36.24 66.82 36.24 66.82s9 12-3.32 18.29c-12.32 6.29-45.56 24.94-45.56 24.94s-10 6.65-18.62-6.65c-8.62-13.3-39.24-65.84-39.24-65.84s-2.5-8.95 0-13.12 14.3-12.16 20.62-16.81c6.32-4.65 29.93-15.63 29.93-15.63zM49 90.8L18.53 38.26s6.82-10 15.22-15S55.45 17 55.45 17L86.2 69.85" stroke-miterlimit="10" stroke-linejoin="round"/><path d="M43 98.45s19.73-25.1 49.33-29.1m-23.52 39.73l21.55-11.14m-23.67 6.81l21.55-11.14M75.29 120l30.26-16.05m-28.01 20.03l30.26-16.05M58.36 93.61s-4.83 5.82 4.32 21.45c9.15 15.63 28.76 49.88 28.76 49.88m-1.02-17.17l34.75-19.04m-21.33 46.36s2.2 5.65 16.5-4 25.6-13 28.26-14.64c2.66-1.64 3-10.3-2-15.63" stroke-miterlimit="10"/><path d="M33.856 85c1.09 2.76 2.134 9.297-2.418 13.366M24.5 80.5C27 84.5 28 92 22 97m-6.5-23c3 5.5 6 17.5-8 24.5m93.28-39.116c-2.757 1.097-9.291 2.156-13.372-2.386m17.849-6.982c-3.994 2.51-11.491 3.529-16.506-2.459M111.735 41c-5.493 3.014-17.485 6.044-24.52-7.939"/></g></g><g clip-path="url(#clip2)"><g clip-path="url(#clip3)" stroke="#5B2194" stroke-width="4"><path d="M434.69 73.18s13-4.66 19.95 8c6.95 12.66 36.24 66.82 36.24 66.82s9 12-3.32 18.29c-12.32 6.29-45.56 24.94-45.56 24.94s-10 6.65-18.62-6.65c-8.62-13.3-39.24-65.84-39.24-65.84s-2.5-8.95 0-13.12 14.3-12.16 20.62-16.81c6.32-4.65 29.93-15.63 29.93-15.63zM389 90.8l-30.47-52.54s6.82-10 15.22-15 21.7-6.26 21.7-6.26l30.75 52.85" stroke-miterlimit="10" stroke-linejoin="round"/><path d="M383 98.45s19.73-25.1 49.33-29.1m-23.519 39.73l21.55-11.14m-23.671 6.81l21.55-11.14M415.29 120l30.26-16.05m-28.01 20.03l30.26-16.05m-49.44-14.32s-4.83 5.82 4.32 21.45c9.15 15.63 28.76 49.88 28.76 49.88m-1.02-17.17l34.75-19.04m-21.33 46.36s2.2 5.65 16.5-4 25.6-13 28.26-14.64c2.66-1.64 3-10.3-2-15.63" stroke-miterlimit="10"/><path d="M374.5 88c.5 2 0 5.5-1.5 8m-7-12c1 3.5.5 7-2 11m-7-17.5c1 5 3 12.5-6.5 19m88-36.5c-2.5.5-7 .5-9-1.5M443 51c-3 1.5-8 1-12-1.5m17.5-7c-4.5 1-13 3.5-19.5-6.5"/></g></g><g clip-path="url(#clip4)"><g clip-path="url(#clip5)" stroke="#5B2194" stroke-width="4"><path d="M264.69 73.18s13-4.66 19.95 8c6.95 12.66 36.24 66.82 36.24 66.82s9 12-3.32 18.29c-12.32 6.29-45.56 24.94-45.56 24.94s-10 6.65-18.62-6.65c-8.62-13.3-39.24-65.84-39.24-65.84s-2.5-8.95 0-13.12 14.3-12.16 20.62-16.81c6.32-4.65 29.93-15.63 29.93-15.63zM219 90.8l-30.47-52.54s6.82-10 15.22-15 21.7-6.26 21.7-6.26l30.75 52.85" stroke-miterlimit="10" stroke-linejoin="round"/><path d="M213 98.45s19.73-25.1 49.33-29.1m-23.519 39.73l21.55-11.14m-23.671 6.81l21.55-11.14M245.29 120l30.26-16.05m-28.01 20.03l30.26-16.05m-49.44-14.32s-4.83 5.82 4.32 21.45c9.15 15.63 28.76 49.88 28.76 49.88m-1.02-17.17l34.75-19.04m-21.33 46.36s2.2 5.65 16.5-4 25.6-13 28.26-14.64c2.66-1.64 3-10.3-2-15.63" stroke-miterlimit="10"/><path d="M204 86c1 3 2 7.5-2 11.5m-7-16c2 4 2.5 10-2 14.5m-7-20.5c2.5 5 4.5 16-7.5 22.5M270 59.5c-2.757 1.097-8 2-12-2m16.5-7c-4 2-10.5 2.5-15-2m21-7c-4.5 2-16 5-22.5-7"/></g></g><defs><clipPath id="clip0"><path fill="#fff" d="M0 0h170v210H0z"/></clipPath><clipPath id="clip1"><path fill="#fff" transform="translate(-18 3)" d="M0 0h174.05v191.89H0z"/></clipPath><clipPath id="clip2"><path fill="#fff" transform="translate(340)" d="M0 0h170v210H0z"/></clipPath><clipPath id="clip3"><path fill="#fff" transform="translate(322 3)" d="M0 0h174.05v191.89H0z"/></clipPath><clipPath id="clip4"><path fill="#fff" transform="translate(170)" d="M0 0h170v210H0z"/></clipPath><clipPath id="clip5"><path fill="#fff" transform="translate(152 3)" d="M0 0h174.05v191.89H0z"/></clipPath></defs></svg>