<svg width="680" height="210" viewBox="0 0 680 210" fill="none" xmlns="http://www.w3.org/2000/svg"><g clip-path="url(#clip0)"><g clip-path="url(#clip1)" stroke="#5B2194" stroke-width="4" stroke-miterlimit="10"><path d="M95.842 17l-4 5.77s-12.18 32.14-32.58 72.49c-20.4 40.35-31 61.19-31 61.19l7.32 11.3 13.3 7.32h13.11s37.58-56.31 44-65.84c6.42-9.53 30.86-44.78 33.3-47.91 2.44-3.13 9.09-12.63 9.09-12.63L95.842 17zm-70.06 154.75l23.73 13.07-4.88 8.21-23.28-12.64 4.43-8.64z" stroke-linejoin="round"/><path d="M35.541 167.75l-3.72 7.32m17.021 0l-3.76 7.32M79.212 71.1l29.71 17.07-41.24 70.49-27.93-15.29 39.46-72.27zm-22.391 59.85l21.95-39.24m17.05-66.24s18.85 23.28 44.56 27.49M88.996 195.166s11.151-3.055 14.291-14.264c3.14-11.21-8.862-17.944-8.862-17.944s-2.851-8.107 7.173-8.68c10.025-.572 14.97 16.446 11.088 27.223-3.882 10.777-23.69 13.665-23.69 13.665zM78.37 178.078s5.44-1.706 7.977 3.134c2.538 4.839-4.284 17.942-13.841 17.987-9.558.044-13.35-4.248-13.35-4.248s22.056 4.326 19.214-16.873z"/></g></g><g clip-path="url(#clip2)"><g clip-path="url(#clip3)" stroke="#5B2194" stroke-width="4" stroke-miterlimit="10"><path d="M265.842 17l-4 5.77s-12.18 32.14-32.58 72.49c-20.4 40.35-31 61.19-31 61.19l7.32 11.3 13.3 7.32h13.11s37.58-56.31 44-65.84c6.42-9.53 30.86-44.78 33.3-47.91 2.44-3.13 9.09-12.63 9.09-12.63L265.842 17zm-70.06 154.75l23.73 13.07-4.88 8.21-23.28-12.64 4.43-8.64z" stroke-linejoin="round"/><path d="M205.541 167.75l-3.72 7.32m17.021 0l-3.76 7.32m34.13-111.29l29.71 17.07-41.24 70.49-27.93-15.29 39.46-72.27zm-22.391 59.85l21.95-39.24m17.05-66.24s18.85 23.28 44.56 27.49m-51.386 142.207s11.033-2.692 13.955-13.237c2.922-10.545-9.129-17.126-9.129-17.126s-2.979-7.718 6.978-8.082c9.956-.364 15.175 15.818 11.506 25.942-3.668 10.123-23.31 12.503-23.31 12.503zm-11.852-15.018s5.228-1.35 7.909 3.248c2.681 4.598-3.406 16.461-12.719 16.093-9.313-.369-13.192-4.513-13.192-4.513s21.68 4.959 18.002-14.828z"/></g></g><g clip-path="url(#clip4)"><g clip-path="url(#clip5)" stroke="#5B2194" stroke-width="4" stroke-miterlimit="10"><path d="M435.842 17l-4 5.77s-12.18 32.14-32.58 72.49c-20.4 40.35-31 61.19-31 61.19l7.32 11.3 13.3 7.32h13.11s37.58-56.31 44-65.84c6.42-9.53 30.86-44.78 33.3-47.91 2.44-3.13 9.09-12.63 9.09-12.63L435.842 17zm-70.06 154.75l23.73 13.07-4.88 8.21-23.28-12.64 4.43-8.64z" stroke-linejoin="round"/><path d="M375.541 167.75l-3.72 7.32m17.021 0l-3.76 7.32m34.13-111.29l29.71 17.07-41.24 70.49-27.93-15.29 39.46-72.27zm-22.391 59.85l21.95-39.24m17.05-66.24s18.85 23.28 44.56 27.49m-51.386 142.205s10.872-2.199 13.501-11.847c2.629-9.647-9.49-16.023-9.49-16.023s-3.15-7.191 6.713-7.273c9.864-.081 15.452 14.972 12.073 24.211-3.379 9.24-22.797 10.932-22.797 10.932zm-13.442-12.333s4.954-.887 7.82 3.398c2.866 4.285-2.267 14.54-11.263 13.636-8.996-.904-12.989-4.856-12.989-4.856s21.195 5.778 16.432-12.178z"/></g></g><defs><clipPath id="clip0"><path fill="#fff" d="M0 0h170v210H0z"/></clipPath><clipPath id="clip1"><path fill="#fff" transform="translate(-25 14)" d="M0 0h175.25v201.37H0z"/></clipPath><clipPath id="clip2"><path fill="#fff" transform="translate(170)" d="M0 0h170v210H0z"/></clipPath><clipPath id="clip3"><path fill="#fff" transform="translate(145 14)" d="M0 0h175.25v201.37H0z"/></clipPath><clipPath id="clip4"><path fill="#fff" transform="translate(340)" d="M0 0h170v210H0z"/></clipPath><clipPath id="clip5"><path fill="#fff" transform="translate(315 14)" d="M0 0h175.25v201.37H0z"/></clipPath></defs></svg>