<svg width="680" height="210" viewBox="0 0 680 210" fill="none" xmlns="http://www.w3.org/2000/svg"><g clip-path="url(#clip0)" stroke="#5B2194" stroke-width="4"><g clip-path="url(#clip1)"><path d="M113.38 83L95.09 22.43 32.91 39.06l15 62.85S88.44 94.93 113.38 83zm4.32 7.05c-38.2 15.45-69.16 18.4-69.16 18.4l18.4 69.61a236.84 236.84 0 0038.13-7.31c19.28-5.55 31-12.2 31-12.2l-18.37-68.5z" stroke-miterlimit="10" stroke-linejoin="round"/><path d="M136.1 158.55s5.33 12.42-8 16.85c-13.33 4.43-19.73 6.43-19.73 6.43l-22.93 6s-13.2 3.32-18.52-9.76" stroke-miterlimit="10"/><path d="M60.5 107.5l18.5 68M109.5 94l18.5 68m-58.5-24c5.5-.5 39.5-8.5 47-13M72 114.5l30.5-8m-28 16l17-4.5m-24.707 72.15c2.344 2.798 8.706 5.85 13.369 4.577M60 194c2.607 3.43 10.856 10.005 23 8.87"/></g><path d="M104.773 19.175c-2.006-3.049-7.975-6.813-12.753-6.085m19.946 3.043c-2.195-3.707-9.633-11.188-21.826-11.458"/></g><g clip-path="url(#clip2)" stroke="#5B2194" stroke-width="4"><g clip-path="url(#clip3)"><path d="M283.38 83l-18.29-60.57-62.18 16.63 15 62.85s40.53-6.98 65.47-18.91zm4.32 7.05c-38.2 15.45-69.16 18.4-69.16 18.4l18.4 69.61a236.823 236.823 0 0038.13-7.31c19.28-5.55 31-12.2 31-12.2l-18.37-68.5z" stroke-miterlimit="10" stroke-linejoin="round"/><path d="M306.1 158.55s5.33 12.42-8 16.85c-13.33 4.43-19.73 6.43-19.73 6.43l-22.93 6s-13.2 3.32-18.52-9.76" stroke-miterlimit="10"/><path d="M230.5 107.5l18.5 68M279.5 94l18.5 68m-58.5-24c5.5-.5 39.5-8.5 47-13M242 114.5l30.5-8m-28 16l17-4.5M238 191.5c2.5 2 7.5 4.5 12.162 3.227m-18.662.773c2.5 3 9.356 8.505 21.5 7.37"/></g><path d="M273.5 17.5c-2.5-2.5-6.702-5.138-11.479-4.41M280.5 14c-2.5-2.5-8.167-9.055-20.36-9.325"/></g><g clip-path="url(#clip4)" stroke="#5B2194" stroke-width="4"><g clip-path="url(#clip5)"><path d="M453.38 83l-18.29-60.57-62.18 16.63 15 62.85s40.53-6.98 65.47-18.91zm4.32 7.05c-38.2 15.45-69.16 18.4-69.16 18.4l18.4 69.61a236.823 236.823 0 0038.13-7.31c19.28-5.55 31-12.2 31-12.2l-18.37-68.5z" stroke-miterlimit="10" stroke-linejoin="round"/><path d="M476.1 158.55s5.33 12.42-8 16.85c-13.33 4.43-19.73 6.43-19.73 6.43l-22.93 6s-13.2 3.32-18.52-9.76" stroke-miterlimit="10"/><path d="M400.5 107.5l18.5 68M449.5 94l18.5 68m-58.5-24c5.5-.5 39.5-8.5 47-13M412 114.5l30.5-8m-28 16l17-4.5M410 192.5c3 2 6.5 3 10.162 2.227M404 197.5c3 3 10 6 19 5.37"/></g><path d="M441.5 16c-1.5-1.5-5.5-3.5-9.479-2.91M448.5 12c-2.5-2-7.5-7-18.36-7.325"/></g><defs><clipPath id="clip0"><path fill="#fff" d="M0 0h170v210H0z"/></clipPath><clipPath id="clip1"><path fill="#fff" transform="translate(-24 20)" d="M0 0h163.16v185.01H0z"/></clipPath><clipPath id="clip2"><path fill="#fff" transform="translate(170)" d="M0 0h170v210H0z"/></clipPath><clipPath id="clip3"><path fill="#fff" transform="translate(146 20)" d="M0 0h163.16v185.01H0z"/></clipPath><clipPath id="clip4"><path fill="#fff" transform="translate(340)" d="M0 0h170v210H0z"/></clipPath><clipPath id="clip5"><path fill="#fff" transform="translate(316 20)" d="M0 0h163.16v185.01H0z"/></clipPath></defs></svg>