<svg width="680" height="210" viewBox="0 0 680 210" fill="none" xmlns="http://www.w3.org/2000/svg"><g clip-path="url(#clip0)"><g clip-path="url(#clip1)" stroke="#5B2194" stroke-width="4"><path d="M35.37 173.28L54.66 95s3.43-13.8 13.85-15.71a28.12 28.12 0 016.76.2c13.53 2.21 50.55 14.63 50.55 14.63s10.42 5.32 6.43 22-21.51 76.7-21.51 76.7-3.32 10.86-23.27 6c-19.95-4.86-42.79-10.87-42.79-10.87s-11.9-4.17-9.31-14.67zm34.14-98.87s11.75-1.11 29.26 3.77a162.29 162.29 0 0115.41 5.11c7.83 3.07 17 7.89 17 7.89" stroke-miterlimit="10"/><path d="M80.38 74.3L89 37.38a84.372 84.372 0 0112.68.49 78.334 78.334 0 0110.82 2 60.675 60.675 0 0120.2 9.49L122.51 86" stroke-miterlimit="10" stroke-linejoin="round"/><path d="M102 37.32a220.245 220.245 0 015.49-22.38c3-9.15 12.14-7 12.14-7s8.81 2.5 6.65 12.31-5.58 22.81-5.58 22.81m-45.26 61.85l6.48-5.18 2.16 7.99 8.32-5.16 1.64 7.61 8.829-5.03-1.82 7.73m-29.599 3.16l6.75-5.25 2.06 7.74 7.24-4.9 1.66 7.4 7.21-4.13 1.52 6.95 10.3-6.23-2.32 8.56m-37.36-1.819l45.67 12.8M63.3 145.79l45.06 11.64" stroke-miterlimit="10"/><path d="M149.811 76.497L136 77.724l6.731-10.825m19.24-1.081l-9.493.845 3.557-7.9m6.75 31.31L155 84.575l7.823-3.722M60.298 55.023l11.564 7.65-.77-12.725M54.68 39.846l7.949 5.259.629-8.64m-20.83 24.327l9.462-1.132-5.11-6.995"/></g></g><g clip-path="url(#clip2)"><g clip-path="url(#clip3)" stroke="#5B2194" stroke-width="4"><path d="M205.37 173.28L224.66 95s3.43-13.8 13.85-15.71a28.12 28.12 0 016.76.2c13.53 2.21 50.55 14.63 50.55 14.63s10.42 5.32 6.43 22-21.51 76.7-21.51 76.7-3.32 10.86-23.27 6c-19.95-4.86-42.79-10.87-42.79-10.87s-11.9-4.17-9.31-14.67zm34.14-98.87s11.75-1.11 29.26 3.77a162.304 162.304 0 0115.41 5.11c7.83 3.07 17 7.89 17 7.89" stroke-miterlimit="10"/><path d="M250.38 74.3L259 37.38a84.368 84.368 0 0112.68.49 78.334 78.334 0 0110.82 2 60.675 60.675 0 0120.2 9.49L292.51 86" stroke-miterlimit="10" stroke-linejoin="round"/><path d="M272 37.32a220.245 220.245 0 015.49-22.38c3-9.15 12.14-7 12.14-7s8.81 2.5 6.65 12.31-5.58 22.81-5.58 22.81m-45.261 61.85l6.48-5.18 2.16 7.99 8.32-5.16 1.64 7.61 8.83-5.03-1.82 7.73m-29.599 3.16l6.75-5.25 2.06 7.74 7.24-4.9 1.66 7.4 7.21-4.13 1.52 6.95 10.3-6.23-2.32 8.56m-37.36-1.819l45.67 12.8m-50.88 8.639l45.06 11.64" stroke-miterlimit="10"/><path d="M317 77l-11 .724 5.5-9.224m16-1.836h-7.021L323.5 60.5m5 26.5l-5.5-4.425 5.5-3.075m-95-21.5l8.362 4.673L241 53.5M228 43l6.629 4.105L235.5 40m-18.501 18.5l6.891-.84-3.891-5.66"/></g></g><g clip-path="url(#clip4)"><g clip-path="url(#clip5)" stroke="#5B2194" stroke-width="4"><path d="M375.37 173.28L394.66 95s3.43-13.8 13.85-15.71a28.12 28.12 0 016.76.2c13.53 2.21 50.55 14.63 50.55 14.63s10.42 5.32 6.43 22-21.51 76.7-21.51 76.7-3.32 10.86-23.27 6c-19.95-4.86-42.79-10.87-42.79-10.87s-11.9-4.17-9.31-14.67zm34.14-98.87s11.75-1.11 29.26 3.77a162.304 162.304 0 0115.41 5.11c7.83 3.07 17 7.89 17 7.89" stroke-miterlimit="10"/><path d="M420.38 74.3L429 37.38a84.368 84.368 0 0112.68.49 78.334 78.334 0 0110.82 2 60.675 60.675 0 0120.2 9.49L462.51 86" stroke-miterlimit="10" stroke-linejoin="round"/><path d="M442 37.32a220.245 220.245 0 015.49-22.38c3-9.15 12.14-7 12.14-7s8.81 2.5 6.65 12.31-5.58 22.81-5.58 22.81m-45.261 61.85l6.48-5.18 2.16 7.99 8.32-5.16 1.64 7.61 8.83-5.03-1.82 7.73m-29.599 3.16l6.75-5.25 2.06 7.74 7.24-4.9 1.66 7.4 7.21-4.13 1.52 6.95 10.3-6.23-2.32 8.56m-37.36-1.819l45.67 12.8m-50.88 8.639l45.06 11.64" stroke-miterlimit="10"/><path d="M484 77.5l-8 .224 3.5-6.725m14-2.999l-5.022-.336L490.5 63m4 21.5l-3.5-2.925L494.5 79m-89-18.501l6.362 2.174-.861-6.674M401.5 47l4.129 2.105.871-4.605M392 59l3.891-1.34L394 54"/></g></g><defs><clipPath id="clip0"><path fill="#fff" d="M0 0h170v210H0z"/></clipPath><clipPath id="clip1"><path fill="#fff" transform="translate(33 -15)" d="M0 0h144.11v217.04H0z"/></clipPath><clipPath id="clip2"><path fill="#fff" transform="translate(170)" d="M0 0h170v210H0z"/></clipPath><clipPath id="clip3"><path fill="#fff" transform="translate(203 -15)" d="M0 0h144.11v217.04H0z"/></clipPath><clipPath id="clip4"><path fill="#fff" transform="translate(340)" d="M0 0h170v210H0z"/></clipPath><clipPath id="clip5"><path fill="#fff" transform="translate(373 -15)" d="M0 0h144.11v217.04H0z"/></clipPath></defs></svg>