<svg width="680" height="210" viewBox="0 0 680 210" fill="none" xmlns="http://www.w3.org/2000/svg"><g clip-path="url(#clip0)"><g clip-path="url(#clip1)" stroke="#5B2194" stroke-width="4" stroke-miterlimit="10"><path d="M79.457 59.55l28.342 13.3s-3.934 10-2.616 15.3c1.318 5.3 4.582 17.95-.875 28.85-5.458 10.9-28.774 66.51-28.774 66.51s-5.9 15.74-21.143 10a264.351 264.351 0 01-29.433-13.58s-12.43-4-4.14-23.72S49.592 91 49.592 91s6.972-12 16.354-17.51a37.247 37.247 0 0013.511-13.94v0z"/><path d="M103.118 40.87l15.36 7.32s2.783 1.16.984 5.82a23457 23457 0 00-7.868 20.45l-36.277-16.8 8.172-18.78s2.124-5.49 7.69-3.33c5.566 2.16 11.939 5.32 11.939 5.32z" stroke-linejoin="round"/><path d="M104.907 16.59l18.645 9.15-9.323 20.42-19.707-9.24 10.385-20.33zM47.999 94.56L103 119.71m-77.786 26.21l55.207 25.96M109.038 9.05s-.236 9.21 8.211 10c8.447.79 23.228-1 35.894 13m-.512 12.057c4.752-.073 8.599-1.022 8.591-2.12-.007-1.098-3.865-1.928-8.617-1.855-4.753.073-8.599 1.022-8.592 2.12.007 1.097 3.865 1.927 8.618 1.855zm-1.685 14.359c7.148.45 13.022-.293 13.12-1.657.098-1.365-5.618-2.835-12.765-3.284-7.148-.45-13.022.293-13.12 1.657-.098 1.365 5.618 2.835 12.765 3.284zm-5.273 19.051c9.209 2.484 17.175 2.702 17.793.487.618-2.215-6.346-6.023-15.554-8.507-9.209-2.484-17.175-2.702-17.793-.487-.618 2.215 6.346 6.024 15.554 8.507zM50.024 107.13l26.601 12.58m-28.626-4.96l14.889 6.43"/></g></g><g clip-path="url(#clip2)"><g clip-path="url(#clip3)" stroke="#5B2194" stroke-width="4" stroke-miterlimit="10"><path d="M249.457 59.55l28.342 13.3s-3.934 10-2.616 15.3c1.318 5.3 4.582 17.95-.875 28.85-5.458 10.9-28.774 66.51-28.774 66.51s-5.901 15.74-21.143 10a264.414 264.414 0 01-29.433-13.58s-12.43-4-4.14-23.72S219.592 91 219.592 91s6.972-12 16.354-17.51a37.241 37.241 0 0013.511-13.94v0z"/><path d="M273.118 40.87l15.36 7.32s2.783 1.16.984 5.82c-1.8 4.66-7.868 20.45-7.868 20.45l-36.277-16.8 8.172-18.78s2.124-5.49 7.69-3.33c5.566 2.16 11.939 5.32 11.939 5.32z" stroke-linejoin="round"/><path d="M274.907 16.59l18.645 9.15-9.323 20.42-19.707-9.24 10.385-20.33zm-56.908 77.97L273 119.71m-77.786 26.21l55.207 25.96M279.038 9.05s-.236 9.21 8.211 10c8.447.79 23.228-1 35.894 13m-.515 11.743c4-.062 7.239-.86 7.232-1.785-.006-.924-3.253-1.623-7.254-1.562-4.001.062-7.239.86-7.233 1.785.006.924 3.254 1.623 7.255 1.562zm-1.664 14.427c6.437.405 11.727-.264 11.815-1.492.088-1.23-5.059-2.553-11.496-2.958-6.438-.404-11.727.264-11.816 1.493-.088 1.229 5.059 2.553 11.497 2.957zm-5.194 18.948c8.407 2.267 15.679 2.466 16.243.445.565-2.022-5.793-5.5-14.199-7.766-8.406-2.268-15.679-2.467-16.243-.445-.564 2.022 5.793 5.499 14.199 7.766zm-95.746 29.962l26.601 12.58m-28.626-4.96l14.888 6.43"/></g></g><g clip-path="url(#clip4)"><g clip-path="url(#clip5)" stroke="#5B2194" stroke-width="4" stroke-miterlimit="10"><path d="M419.457 59.55l28.342 13.3s-3.934 10-2.616 15.3c1.318 5.3 4.582 17.95-.875 28.85-5.458 10.9-28.774 66.51-28.774 66.51s-5.901 15.74-21.143 10a264.414 264.414 0 01-29.433-13.58s-12.43-4-4.14-23.72S389.592 91 389.592 91s6.972-12 16.354-17.51a37.241 37.241 0 0013.511-13.94v0z"/><path d="M443.118 40.87l15.36 7.32s2.783 1.16.984 5.82c-1.8 4.66-7.868 20.45-7.868 20.45l-36.277-16.8 8.172-18.78s2.124-5.49 7.69-3.33c5.566 2.16 11.939 5.32 11.939 5.32z" stroke-linejoin="round"/><path d="M444.907 16.59l18.645 9.15-9.323 20.42-19.707-9.24 10.385-20.33zm-56.908 77.97L443 119.71m-77.786 26.21l55.207 25.96M449.038 9.05s-.236 9.21 8.211 10c8.447.79 23.228-1 35.894 13m-.446 11.353c3.072-.047 5.56-.661 5.555-1.37-.005-.71-2.499-1.248-5.572-1.2-3.073.047-5.56.66-5.555 1.37.004.71 2.499 1.247 5.572 1.2zm-1.673 14.507c5.532.348 10.078-.227 10.154-1.283.076-1.056-4.348-2.194-9.88-2.542-5.533-.347-10.079.227-10.155 1.283-.076 1.056 4.348 2.194 9.881 2.542zm-5.159 18.884c7.554 2.037 14.088 2.216 14.595.4.507-1.817-5.205-4.942-12.759-6.979-7.553-2.037-14.088-2.216-14.595-.4-.507 1.818 5.206 4.942 12.759 6.98zm-95.841 30.336l26.601 12.58m-28.626-4.96l14.888 6.43"/></g></g><defs><clipPath id="clip0"><path fill="#fff" d="M0 0h170v210H0z"/></clipPath><clipPath id="clip1"><path fill="#fff" transform="translate(16 9)" d="M0 0h177.56v187.72H0z"/></clipPath><clipPath id="clip2"><path fill="#fff" transform="translate(170)" d="M0 0h170v210H0z"/></clipPath><clipPath id="clip3"><path fill="#fff" transform="translate(186 9)" d="M0 0h177.56v187.72H0z"/></clipPath><clipPath id="clip4"><path fill="#fff" transform="translate(340)" d="M0 0h170v210H0z"/></clipPath><clipPath id="clip5"><path fill="#fff" transform="translate(356 9)" d="M0 0h177.56v187.72H0z"/></clipPath></defs></svg>