<svg width="680" height="210" viewBox="0 0 680 210" fill="none" xmlns="http://www.w3.org/2000/svg"><g clip-path="url(#clip0)"><g clip-path="url(#clip1)" stroke="#5B2194" stroke-width="4" stroke-miterlimit="10"><path d="M96.11 20.25L135 39.87s5.65 8.86 2 16c-4.59 9-9.3 21.24-19.61 15.25-10.31-5.99-36.24-21.6-36.24-21.6a47.66 47.66 0 013.48-15.63c3.43-7.64 6.87-15.97 11.48-13.64zM51.55 74.79l8.65-15.3s3.32-7.65 22.28 4.33a250.078 250.078 0 0034.25 18.28s7 2.33-5.65 24.61-39.91 71.17-39.91 71.17-3.66 8.41-28.27-7.88-26.6-19.39-26.6-19.39-6.65-4.32 2.7-19.29c9.35-14.97 32.55-56.53 32.55-56.53z"/><path d="M135 39.87l21.63 15.63s2 8-7.31 20c-9.31 12-20.07 3.12-20.07 3.12s-5.21 6.2.78 10.85c5.99 4.65 13.64 9.31 8.65 19.62s-45.89 77.15-45.89 77.15-1.64 1.47-7.8 0c-7.5-1.78-21.25-6.14-21.25-6.14M89.41 54.48s-1.61 9.67-6.93 9.34"/><path d="M64.52 68.64l38.24 20.61-24.94 43.9-38.24-22.28 24.94-42.23z" stroke-linejoin="round"/><path d="M116.73 82.1s23.44 7.62 11.47 28.24C116.23 130.96 85 186.19 85 186.19m44.25-107.62l-11.85-7.44m-55.87 15c6-4 7.27-2 6.29 3-.98 5 11.66-3.33 11 1.66-.66 4.99-6.27 7.65 0 8 3.52.206 7.05.206 10.57 0M39 75.5S13.272 46.834 22.579 48.866c9.306 2.031 19.405 6.3 14.672-3.614-4.733-9.916-15.685-47.502-8.056-39.16 7.63 8.344 22.444 34.233 26.782 28.75 4.34-5.485 2.96-33.838 7.755-18.511 4.795 15.326 9.356 23.607 9.356 23.607m49.164 119.396s11.969 17.862 11.902 10.656c-.067-7.205-3.041-18.083 3.142-15.39 6.183 2.692 28.258 1.31 20.734-3.39-7.524-4.701-19.388-10.856-15.355-12.978 4.033-2.123 11.364-7.694 6.006-9.216a59.847 59.847 0 00-9.365-1.877"/></g></g><g clip-path="url(#clip2)"><g clip-path="url(#clip3)" stroke="#5B2194" stroke-width="4" stroke-miterlimit="10"><path d="M266.109 20.25l38.89 19.62s5.65 8.86 2 16c-4.59 9-9.3 21.24-19.61 15.25-10.31-5.99-36.24-21.6-36.24-21.6a47.685 47.685 0 013.48-15.63c3.43-7.64 6.87-15.97 11.48-13.64zM221.55 74.79l8.65-15.3s3.32-7.65 22.28 4.33a250.035 250.035 0 0034.25 18.28s7 2.33-5.65 24.61-39.91 71.17-39.91 71.17-3.66 8.41-28.27-7.88-26.6-19.39-26.6-19.39-6.65-4.32 2.7-19.29c9.35-14.97 32.55-56.53 32.55-56.53z"/><path d="M304.999 39.87l21.63 15.63s2 8-7.31 20c-9.31 12-20.07 3.12-20.07 3.12s-5.21 6.2.78 10.85c5.99 4.65 13.64 9.31 8.65 19.62s-45.89 77.15-45.89 77.15-1.64 1.47-7.8 0c-7.5-1.78-21.25-6.14-21.25-6.14m25.67-125.62s-1.61 9.67-6.93 9.34"/><path d="M234.519 68.64l38.24 20.61-24.94 43.9-38.24-22.28 24.94-42.23z" stroke-linejoin="round"/><path d="M286.73 82.1s23.44 7.62 11.47 28.24c-11.97 20.62-43.2 75.85-43.2 75.85m44.249-107.62l-11.85-7.44m-55.87 15c6-4 7.27-2 6.29 3-.98 5 11.66-3.33 11 1.66-.66 4.99-6.27 7.65 0 8a90.47 90.47 0 0010.57 0M209 75.5S184.694 47.968 194 50c9.306 2.032 17.983 5.167 13.251-4.748C202.518 35.336 192.87-.344 200.499 8c7.63 8.343 21.139 32.325 25.478 26.841 4.339-5.484 3.228-31.668 8.023-16.341 4.794 15.327 9.087 21.438 9.087 21.438m49.164 119.395S303.567 175.205 303.5 168c-.068-7.205-2.387-16.093 3.796-13.401s26.228.601 18.704-4.1c-7.524-4.7-17.358-10.146-13.325-12.268 4.033-2.122 7.885-8.829 3.825-9.732-4.5-1-4.017-.985-7.184-1.361"/></g></g><g clip-path="url(#clip4)"><g clip-path="url(#clip5)" stroke="#5B2194" stroke-width="4" stroke-miterlimit="10"><path d="M436.109 20.25l38.89 19.62s5.65 8.86 2 16c-4.59 9-9.3 21.24-19.61 15.25-10.31-5.99-36.24-21.6-36.24-21.6a47.684 47.684 0 013.48-15.63c3.43-7.64 6.87-15.97 11.48-13.64zM391.55 74.79l8.65-15.3s3.32-7.65 22.28 4.33a250.035 250.035 0 0034.25 18.28s7 2.33-5.65 24.61-39.91 71.17-39.91 71.17-3.66 8.41-28.27-7.88-26.6-19.39-26.6-19.39-6.65-4.32 2.7-19.29c9.35-14.97 32.55-56.53 32.55-56.53z"/><path d="M475 39.87l21.63 15.63s2 8-7.31 20c-9.31 12-20.07 3.12-20.07 3.12s-5.21 6.2.78 10.85c5.99 4.65 13.64 9.31 8.65 19.62s-45.89 77.15-45.89 77.15-1.64 1.47-7.8 0c-7.5-1.78-21.25-6.14-21.25-6.14m25.669-125.62s-1.61 9.67-6.93 9.34"/><path d="M404.52 68.64l38.24 20.61-24.94 43.901-38.24-22.28 24.94-42.23z" stroke-linejoin="round"/><path d="M456.73 82.1s23.44 7.62 11.47 28.241c-11.97 20.62-43.2 75.85-43.2 75.85M469.249 78.57l-11.85-7.44m-55.87 15c6-4 7.27-2 6.29 3-.98 5 11.66-3.33 11 1.66-.66 4.99-6.27 7.65 0 8 3.521.207 7.05.207 10.57 0M379 75.5S356.693 48.968 366 51c9.306 2.032 15.984 4.167 11.251-5.748-4.733-9.915-13.38-43.595-5.751-35.252 7.629 8.343 20.139 30.325 24.477 24.841 4.339-5.484 3.729-29.668 8.523-14.341s8.588 19.438 8.588 19.438m49.163 119.396S473.067 172.705 473 165.5c-.068-7.205-1.887-13.592 4.296-10.9s23.227-.399 15.703-5.1c-7.524-4.7-14.357-9.146-10.324-11.268 4.032-2.122 5.324-7.232 1.324-9.232-2-1-3.5-1.5-4.683-1.861"/></g></g><defs><clipPath id="clip0"><path fill="#fff" d="M0 0h170v210H0z"/></clipPath><clipPath id="clip1"><path fill="#fff" transform="translate(12 -29)" d="M0 0h181.43v217.84H0z"/></clipPath><clipPath id="clip2"><path fill="#fff" transform="translate(170)" d="M0 0h170v210H0z"/></clipPath><clipPath id="clip3"><path fill="#fff" transform="translate(182 -29)" d="M0 0h181.43v217.84H0z"/></clipPath><clipPath id="clip4"><path fill="#fff" transform="translate(340)" d="M0 0h170v210H0z"/></clipPath><clipPath id="clip5"><path fill="#fff" transform="translate(352 -29)" d="M0 0h181.43v217.84H0z"/></clipPath></defs></svg>